<svg width="140" height="45" viewBox="0 0 140 45" fill="none" xmlns="http://www.w3.org/2000/svg">
<path d="M9.48828 9.73633C9.48828 8.58789 9.875 7.63281 10.6484 6.87109C11.4336 6.10937 12.4297 5.72852 13.6367 5.72852C14.8555 5.72852 15.8633 6.10352 16.6602 6.85352C17.2109 7.39258 17.5684 8.02539 17.7324 8.75195H19.543V6.00977C19.543 5.70508 19.502 5.51172 19.4199 5.42969C19.3379 5.34766 19.2207 5.2832 19.0684 5.23633C18.7871 5.17773 18.5645 5.10156 18.4004 5.00781C18.248 4.91406 18.1719 4.76758 18.1719 4.56836C18.1719 4.11133 18.4297 3.88281 18.9453 3.88281H20.8086C21.4414 3.88281 21.7578 4.15234 21.7578 4.69141V15.2031C21.7578 16.3281 21.1895 16.8906 20.0527 16.8906H19.543V10.3867H17.7852C17.668 11.2422 17.293 11.9746 16.6602 12.584C15.8633 13.3457 14.8555 13.7266 13.6367 13.7266C12.4297 13.7266 11.4336 13.3516 10.6484 12.6016C9.875 11.8398 9.48828 10.8848 9.48828 9.73633ZM15.6055 9.71875C15.6055 9.05078 15.4121 8.49414 15.0254 8.04883C14.6504 7.60352 14.1875 7.38086 13.6367 7.38086C13.1094 7.38086 12.6582 7.60352 12.2832 8.04883C11.9082 8.49414 11.7207 9.05078 11.7207 9.71875C11.7207 10.3867 11.9082 10.9375 12.2832 11.3711C12.6582 11.8047 13.1094 12.0215 13.6367 12.0215C14.1875 12.0215 14.6504 11.8047 15.0254 11.3711C15.4121 10.9375 15.6055 10.3867 15.6055 9.71875ZM21.8281 20.8809H15.3242C14.1406 20.8809 13.5488 20.3477 13.5488 19.2812V17.2773C13.5488 16.9375 13.502 16.7266 13.4082 16.6445C13.3262 16.5625 13.2031 16.4922 13.0391 16.4336C12.7344 16.3516 12.541 16.2637 12.459 16.1699C12.377 16.0762 12.3359 15.9414 12.3359 15.7656C12.3359 15.3555 12.5645 15.1504 13.0215 15.1504H14.832C15.4531 15.1504 15.7637 15.4199 15.7637 15.959V18.8418C15.7637 19.0996 15.8691 19.2285 16.0801 19.2285H21.8984C22.2852 19.2285 22.4785 19.5039 22.4785 20.0547C22.4785 20.6055 22.2617 20.8809 21.8281 20.8809ZM24.0605 8.13672C23.6855 8.13672 23.498 7.86133 23.498 7.31055C23.498 6.77148 23.709 6.50195 24.1309 6.50195H29C29.2812 6.50195 29.498 6.625 29.6504 6.87109C29.8027 7.10547 29.8438 7.4043 29.7734 7.76758C29.457 8.92773 28.959 10.0762 28.2793 11.2129L30.5469 14.1836C30.7109 14.4062 30.793 14.6582 30.793 14.9395C30.793 15.209 30.6758 15.4258 30.4414 15.5898C30.2305 15.7539 30.002 15.8184 29.7559 15.7832C29.5215 15.7363 29.3105 15.5664 29.123 15.2734L27.4355 12.5137C26.4863 13.8145 25.4902 14.8809 24.4473 15.7129C23.9199 16.1348 23.5391 16.2109 23.3047 15.9414C23.0703 15.6602 23.0703 15.3848 23.3047 15.1152C24.3594 14.0254 25.2266 12.8418 25.9062 11.5645C26.5859 10.2754 27.0781 9.13281 27.3828 8.13672H24.0605ZM36.4531 4.70898V19.3867C36.4531 20.5117 35.8965 21.0742 34.7832 21.0742H34.3613V6.00977C34.3613 5.69336 34.332 5.49414 34.2734 5.41211C34.2266 5.31836 34.1152 5.24805 33.9395 5.20117C33.6465 5.14258 33.4297 5.07227 33.2891 4.99023C33.1484 4.9082 33.0781 4.76758 33.0781 4.56836C33.0781 4.11133 33.3535 3.88281 33.9043 3.88281H35.5215C36.1426 3.88281 36.4531 4.1582 36.4531 4.70898ZM33.4297 5.60547V18.3145C33.4297 19.4395 32.8965 20.002 31.8301 20.002H31.4434V11.8633H29.8613C29.4746 11.8633 29.2812 11.5996 29.2812 11.0723C29.2812 10.5098 29.4746 10.2285 29.8613 10.2285H31.4434V6.87109C31.4434 6.54297 31.4082 6.33789 31.3379 6.25586C31.2676 6.17383 31.1504 6.10937 30.9863 6.0625C30.7051 5.99219 30.5 5.92188 30.3711 5.85156C30.2422 5.76953 30.1777 5.64062 30.1777 5.46484C30.1777 5.03125 30.4238 4.81445 30.916 4.81445H32.498C33.1191 4.81445 33.4297 5.07812 33.4297 5.60547ZM40.8828 13.7441H45.9102C46.2734 13.7441 46.4551 14.0137 46.4551 14.5527C46.4551 15.1035 46.2383 15.3789 45.8047 15.3789H39.3887C38.6152 15.3789 38.2285 14.9688 38.2285 14.1484V8.40039C38.2285 8.0957 38.2109 7.9082 38.1758 7.83789C38.1523 7.76758 38.0762 7.69727 37.9473 7.62695C37.7715 7.56836 37.6191 7.49219 37.4902 7.39844C37.373 7.30469 37.3145 7.15234 37.3145 6.94141C37.3145 6.53125 37.5723 6.32617 38.0879 6.32617H39.4062C40.0977 6.32617 40.4434 6.60156 40.4434 7.15234V13.252C40.4434 13.5801 40.5898 13.7441 40.8828 13.7441ZM47.1406 6.0625C47.1406 5.72266 47.0996 5.51172 47.0176 5.42969C46.9473 5.34766 46.8359 5.2832 46.6836 5.23633C46.4023 5.17773 46.1797 5.10156 46.0156 5.00781C45.8516 4.91406 45.7695 4.76758 45.7695 4.56836C45.7695 4.11133 46.0273 3.88281 46.543 3.88281H48.4414C49.0508 3.88281 49.3555 4.12891 49.3555 4.62109V10.0527H51.2715C51.6465 10.0527 51.834 10.334 51.834 10.8965C51.834 11.459 51.6465 11.7402 51.2715 11.7402H49.3555V19.4395C49.3555 20.5176 48.793 21.0566 47.668 21.0566H47.1406V6.0625ZM59.9023 6.04492H68.2871C68.8379 6.04492 69.1133 6.39062 69.1133 7.08203C69.1133 8.41797 69.0254 9.77148 68.8496 11.1426C68.6855 12.5137 68.4395 13.6328 68.1113 14.5C68.041 14.6992 67.8945 14.8574 67.6719 14.9746C67.4492 15.0918 67.2148 15.0977 66.9688 14.9922C66.8047 14.9336 66.6875 14.8398 66.6172 14.7109C66.5469 14.5703 66.5234 14.3711 66.5469 14.1133C66.6758 13.375 66.7578 12.6602 66.793 11.9688C66.8281 11.2656 66.8457 9.84766 66.8457 7.71484H59.8672C59.5039 7.71484 59.3223 7.43359 59.3223 6.87109C59.3223 6.32031 59.5156 6.04492 59.9023 6.04492ZM62.627 16.6621V13.1289C62.627 12.8359 62.5918 12.6426 62.5215 12.5488C62.4512 12.4434 62.3105 12.3613 62.0996 12.3027C61.9121 12.2441 61.7656 12.1738 61.6602 12.0918C61.5547 11.998 61.502 11.875 61.502 11.7227C61.502 11.3125 61.7773 11.1074 62.3281 11.1074H63.9102C64.5312 11.1074 64.8418 11.3887 64.8418 11.9512V16.6621H70.9766C71.3984 16.6621 71.6094 16.9609 71.6094 17.5586C71.6094 18.0859 71.3984 18.3496 70.9766 18.3496H58.0391C57.6641 18.3496 57.4766 18.0859 57.4766 17.5586C57.4766 16.9609 57.6641 16.6621 58.0391 16.6621H62.627ZM72.8926 7.5918C72.5176 7.5918 72.3301 7.31641 72.3301 6.76562C72.3301 6.22656 72.5352 5.95703 72.9453 5.95703H78.166C78.4355 5.95703 78.6289 6.08008 78.7461 6.32617C78.8633 6.57227 78.9102 6.81836 78.8867 7.06445C78.6523 8.40039 78.0137 9.71289 76.9707 11.002C75.9277 12.291 74.7031 13.3633 73.2969 14.2188C72.6758 14.6289 72.248 14.6816 72.0137 14.377C71.7793 14.0723 71.8203 13.7676 72.1367 13.4629C73.3086 12.5723 74.2812 11.5527 75.0547 10.4043C75.8398 9.24414 76.3203 8.30664 76.4961 7.5918H72.8926ZM85.1973 4.72656V12.5137C85.1973 13.6738 84.6406 14.2539 83.5273 14.2539H83.1055V10.1582H81.6816V12.4609C81.6816 13.5391 81.166 14.0781 80.1348 14.0781H79.7129V6.88867C79.7129 6.54883 79.6719 6.33789 79.5898 6.25586C79.5195 6.17383 79.4023 6.10937 79.2383 6.0625C78.957 5.99219 78.7461 5.91602 78.6055 5.83398C78.4648 5.75195 78.3945 5.62305 78.3945 5.44727C78.3945 5.02539 78.6406 4.81445 79.1328 4.81445H80.7676C81.377 4.81445 81.6816 5.06641 81.6816 5.57031V8.54102H83.1055V5.99219C83.1055 5.6875 83.0762 5.49414 83.0176 5.41211C82.9707 5.31836 82.8594 5.24805 82.6836 5.20117C82.3906 5.14258 82.1738 5.07227 82.0332 4.99023C81.8926 4.9082 81.8223 4.76758 81.8223 4.56836C81.8223 4.11133 82.0977 3.88281 82.6484 3.88281H84.2656C84.8867 3.88281 85.1973 4.16406 85.1973 4.72656ZM75.6699 16.5039C75.3535 16.5039 75.1953 16.2285 75.1953 15.6777C75.1953 15.1387 75.3594 14.8691 75.6875 14.8691H84.2832C84.7637 14.8691 85.0039 15.1445 85.0039 15.6953V19.5801C85.0039 20.7988 84.4824 21.4082 83.4395 21.4082H82.8066V16.5039H75.6699ZM87.2188 7.97852C86.8438 7.97852 86.6562 7.70313 86.6562 7.15234C86.6562 6.60156 86.8555 6.32617 87.2539 6.32617H93.916C94.4668 6.32617 94.7422 6.70117 94.7422 7.45117C94.7422 8.43555 94.6543 9.53711 94.4785 10.7559C94.3145 11.9629 94.1211 12.9062 93.8984 13.5859C93.8164 13.8086 93.6699 13.9785 93.459 14.0957C93.248 14.2129 93.0195 14.2305 92.7734 14.1484C92.5859 14.0898 92.457 14.002 92.3867 13.8848C92.3164 13.7559 92.2871 13.5566 92.2988 13.2871C92.416 12.4316 92.4746 11.5645 92.4746 10.6855C92.4746 9.79492 92.4746 8.89258 92.4746 7.97852H87.2188ZM95.8848 6.08008C95.8848 5.72852 95.8379 5.51172 95.7441 5.42969C95.6504 5.34766 95.5156 5.2832 95.3398 5.23633C95.1055 5.16602 94.9004 5.08984 94.7246 5.00781C94.5605 4.91406 94.4785 4.76758 94.4785 4.56836C94.4785 4.11133 94.7246 3.88281 95.2168 3.88281H97.1855C97.7949 3.88281 98.0996 4.12891 98.0996 4.62109V10.2285H100.016C100.391 10.2285 100.578 10.5098 100.578 11.0723C100.578 11.6348 100.391 11.916 100.016 11.916H98.0996V19.4395C98.0996 20.5176 97.5371 21.0566 96.4121 21.0566H95.8848V15.9766C95.8496 16.1172 95.7617 16.2344 95.6211 16.3281C95.2812 16.5391 94.7422 16.7148 94.0039 16.8555C93.2656 16.9961 92.3574 17.0664 91.2793 17.0664H86.6387C86.2637 17.0664 86.0762 16.791 86.0762 16.2402C86.0762 15.7012 86.2637 15.4316 86.6387 15.4316H89.082V12.5488C89.082 12.2207 89.0586 12.0039 89.0117 11.8984C88.9648 11.793 88.8711 11.7168 88.7305 11.6699C88.543 11.623 88.3848 11.5586 88.2559 11.4766C88.127 11.3828 88.0625 11.2539 88.0625 11.0898C88.0625 10.6797 88.373 10.4746 88.9941 10.4746H90.3477C90.9805 10.4746 91.2969 10.7559 91.2969 11.3184V15.4316H91.3496C92.1348 15.4316 92.7617 15.4258 93.2305 15.4141C93.7109 15.4023 94.1973 15.3496 94.6895 15.2559C95.3926 15.1035 95.791 15.1973 95.8848 15.5371V15.5723V6.08008ZM105.764 9.78906C105.506 9.70703 105.342 9.625 105.271 9.54297C105.213 9.46094 105.195 9.35547 105.219 9.22656C105.266 9.03906 105.406 8.92188 105.641 8.875C105.875 8.81641 106.109 8.80469 106.344 8.83984C107.059 8.89844 107.662 9.15625 108.154 9.61328C108.646 10.0586 108.893 10.6211 108.893 11.3008C108.893 12.168 108.529 12.918 107.803 13.5508C107.088 14.1719 106.186 14.4824 105.096 14.4824C103.994 14.4824 103.086 14.1543 102.371 13.498C101.656 12.8418 101.299 12.0508 101.299 11.125C101.299 10.5273 101.434 10 101.703 9.54297C101.973 9.07422 102.289 8.74609 102.652 8.55859H101.193C100.807 8.55859 100.613 8.28906 100.613 7.75C100.613 7.23437 100.801 6.97656 101.176 6.97656H108.752C109.174 6.97656 109.385 7.23437 109.385 7.75C109.385 8.28906 109.174 8.55859 108.752 8.55859H106.326C105.4 8.55859 104.703 8.79883 104.234 9.2793C103.766 9.75977 103.531 10.375 103.531 11.125C103.531 11.5938 103.689 11.9922 104.006 12.3203C104.334 12.6367 104.709 12.7949 105.131 12.7949C105.541 12.7949 105.898 12.6602 106.203 12.3906C106.508 12.1094 106.666 11.7461 106.678 11.3008C106.701 10.9023 106.625 10.5801 106.449 10.334C106.273 10.0762 106.045 9.89453 105.764 9.78906ZM102.828 5.64062L102.371 5.21875C102.23 5.07812 102.154 4.9375 102.143 4.79688C102.131 4.65625 102.166 4.52148 102.248 4.39258C102.389 4.20508 102.559 4.09961 102.758 4.07617C102.969 4.05273 103.203 4.10547 103.461 4.23438C103.965 4.46875 104.422 4.62695 104.832 4.70898C105.242 4.7793 105.799 4.81445 106.502 4.81445C107.029 4.81445 107.293 5.07812 107.293 5.60547C107.293 5.88672 107.205 6.0918 107.029 6.2207C106.854 6.33789 106.66 6.39648 106.449 6.39648L104.885 6.37891C104.029 6.37891 103.344 6.13281 102.828 5.64062ZM110.492 6.0625C110.492 5.72266 110.451 5.51758 110.369 5.44727C110.299 5.36523 110.182 5.29492 110.018 5.23633C109.748 5.16602 109.531 5.08984 109.367 5.00781C109.203 4.91406 109.121 4.76758 109.121 4.56836C109.121 4.11133 109.379 3.88281 109.895 3.88281H111.793C112.402 3.88281 112.707 4.12891 112.707 4.62109V9.10352H114.623C114.998 9.10352 115.186 9.39062 115.186 9.96484C115.186 10.5273 114.998 10.8086 114.623 10.8086H112.707V12.6719C112.707 13.75 112.145 14.2891 111.02 14.2891H110.492V6.0625ZM106.783 19.457H110.439V16.7148H106.783V19.457ZM111.74 15.0625C112.303 15.0625 112.584 15.3906 112.584 16.0469V18.3672C112.584 18.8125 112.514 19.1816 112.373 19.4746C112.666 19.5449 112.812 19.8086 112.812 20.2656C112.812 20.8164 112.596 21.0918 112.162 21.0918H106.221C105.963 21.373 105.611 21.5137 105.166 21.5137H104.639V17.4883C104.639 17.0195 104.621 16.7324 104.586 16.627C104.551 16.5215 104.463 16.4395 104.322 16.3809C104.182 16.3105 104.059 16.2285 103.953 16.1348C103.859 16.041 103.812 15.8945 103.812 15.6953C103.812 15.2734 104.059 15.0625 104.551 15.0625H111.74ZM116.047 6.50195H122.375C122.633 6.50195 122.826 6.60742 122.955 6.81836C123.096 7.01758 123.148 7.26953 123.113 7.57422C123.008 8.38281 122.861 9.17383 122.674 9.94727H124.01V6.87109C124.01 6.54297 123.98 6.33789 123.922 6.25586C123.863 6.17383 123.752 6.10937 123.588 6.0625C123.318 5.99219 123.107 5.92188 122.955 5.85156C122.803 5.76953 122.727 5.64062 122.727 5.46484C122.727 5.03125 122.973 4.81445 123.465 4.81445H125.012C125.633 4.81445 125.943 5.07812 125.943 5.60547V18.3145C125.943 19.4395 125.439 20.002 124.432 20.002H124.01V11.582H122.428C122.322 11.582 122.24 11.5645 122.182 11.5293C122.076 11.8105 121.965 12.0918 121.848 12.373C121.203 13.873 120.5 15.0918 119.738 16.0293C119.305 16.5566 118.906 16.7031 118.543 16.4688C118.191 16.2227 118.127 15.9121 118.35 15.5371C118.982 14.5645 119.521 13.3984 119.967 12.0391C120.424 10.6797 120.723 9.37891 120.863 8.13672H119.914C119.668 9.51953 119.234 10.8203 118.613 12.0391C117.992 13.2578 117.348 14.2715 116.68 15.0801C116.199 15.666 115.824 15.8184 115.555 15.5371C115.285 15.2441 115.268 14.8867 115.502 14.4648C115.994 13.7148 116.469 12.7363 116.926 11.5293C117.395 10.3105 117.693 9.17969 117.822 8.13672H116.029C115.654 8.13672 115.467 7.86133 115.467 7.31055C115.467 6.77148 115.66 6.50195 116.047 6.50195ZM126.822 6.00977C126.822 5.69336 126.793 5.49414 126.734 5.41211C126.688 5.31836 126.576 5.24805 126.4 5.20117C126.107 5.14258 125.891 5.07227 125.75 4.99023C125.621 4.9082 125.557 4.76758 125.557 4.56836C125.557 4.11133 125.826 3.88281 126.365 3.88281H127.947C128.568 3.88281 128.879 4.1582 128.879 4.70898V19.3867C128.879 20.5117 128.346 21.0742 127.279 21.0742H126.822V6.00977ZM10.7188 33.498C10.332 33.498 10.1387 33.2285 10.1387 32.6895C10.1387 32.1504 10.3262 31.8809 10.7012 31.8809H11.9492V29.7715C11.9492 29.4785 11.9316 29.2793 11.8965 29.1738C11.873 29.0566 11.8027 28.9746 11.6855 28.9277C11.5449 28.8809 11.4102 28.8281 11.2812 28.7695C11.1641 28.6992 11.1055 28.5586 11.1055 28.3477C11.1055 27.9727 11.3633 27.7852 11.8789 27.7852H13.127C13.7949 27.7852 14.1289 28.0488 14.1289 28.5762V31.8809H15.3594V27.3105H10.7012C10.3262 27.3105 10.1387 27.0352 10.1387 26.4844C10.1387 25.9453 10.332 25.6758 10.7188 25.6758H18.6641C19.0742 25.6758 19.2793 25.9453 19.2793 26.4844C19.2793 27.0352 19.0918 27.3105 18.7168 27.3105H17.5742V31.8809H18.9102C19.2734 31.8809 19.4551 32.1504 19.4551 32.6895C19.4551 33.2285 19.2559 33.498 18.8574 33.498H10.7188ZM20.4219 34.4648V31.5996H18.6289C18.1836 31.5996 17.9609 31.3242 17.9609 30.7734C17.9609 30.2461 18.1836 29.9824 18.6289 29.9824H20.4219V29.1562H18.6289C18.1836 29.1562 17.9609 28.8809 17.9609 28.3301C17.9609 27.8027 18.1836 27.5391 18.6289 27.5391H20.4219V26.0625C20.4219 25.7227 20.3809 25.5117 20.2988 25.4297C20.2168 25.3477 20.0996 25.2832 19.9473 25.2363C19.6777 25.1777 19.4609 25.1016 19.2969 25.0078C19.1328 24.9141 19.0508 24.7676 19.0508 24.5684C19.0508 24.1113 19.2969 23.8828 19.7891 23.8828H21.6172C22.25 23.8828 22.5664 24.1582 22.5664 24.709V32.7246C22.5664 33.8848 22.0215 34.4648 20.9316 34.4648H20.4219ZM14.5156 37.875C14.5156 36.8789 14.8848 36.0234 15.623 35.3086C16.3613 34.582 17.3105 34.2188 18.4707 34.2188C19.6426 34.2188 20.5977 34.582 21.3359 35.3086C22.0859 36.0234 22.4609 36.8789 22.4609 37.875C22.4609 38.8359 22.0859 39.668 21.3359 40.3711C20.5977 41.0742 19.6426 41.4258 18.4707 41.4258C17.3105 41.4258 16.3613 41.0742 15.623 40.3711C14.8848 39.668 14.5156 38.8359 14.5156 37.875ZM20.2988 37.8398C20.2988 37.3008 20.1172 36.8438 19.7539 36.4688C19.4023 36.082 18.9688 35.8887 18.4531 35.8887C17.9609 35.8887 17.5449 36.082 17.2051 36.4688C16.8652 36.8438 16.6953 37.3008 16.6953 37.8398C16.6953 38.3672 16.8652 38.8184 17.2051 39.1934C17.5449 39.5684 17.9609 39.7559 18.4531 39.7559C18.9688 39.7559 19.4023 39.5684 19.7539 39.1934C20.1172 38.8184 20.2988 38.3672 20.2988 37.8398ZM24.957 28.2246C24.582 28.2246 24.3945 27.9492 24.3945 27.3984C24.3945 26.8594 24.5879 26.5898 24.9746 26.5898H31.1621C31.4785 26.5898 31.7012 26.7129 31.8301 26.959C31.9707 27.1934 32.0234 27.4453 31.9883 27.7148C31.707 29.2969 30.9395 30.8555 29.6855 32.3906C28.4434 33.9258 27.043 35.168 25.4844 36.1172C24.8164 36.5508 24.3535 36.6094 24.0957 36.293C23.8496 35.9766 23.8965 35.666 24.2363 35.3613C25.5371 34.3652 26.6621 33.1758 27.6113 31.793C28.5605 30.4102 29.1641 29.2207 29.4219 28.2246H24.957ZM33.6582 26.0625C33.6582 25.7227 33.6172 25.5117 33.5352 25.4297C33.4648 25.3477 33.3535 25.2832 33.2012 25.2363C32.9199 25.1777 32.6973 25.1016 32.5332 25.0078C32.3691 24.9141 32.2871 24.7676 32.2871 24.5684C32.2871 24.1113 32.5449 23.8828 33.0605 23.8828H34.959C35.5684 23.8828 35.873 24.1289 35.873 24.6211V30.0527H37.7891C38.1641 30.0527 38.3516 30.334 38.3516 30.8965C38.3516 31.459 38.1641 31.7402 37.7891 31.7402H35.873V39.4395C35.873 40.5176 35.3105 41.0566 34.1855 41.0566H33.6582V26.0625ZM44.6445 27.5391C44.5625 28.5117 44.2344 29.5898 43.6602 30.7734L46.8594 34.0254C47.1172 34.2715 47.252 34.541 47.2637 34.834C47.2871 35.127 47.2168 35.3555 47.0527 35.5195C46.7949 35.7656 46.502 35.8594 46.1738 35.8008C45.8574 35.7305 45.5938 35.5664 45.3828 35.3086L42.8516 32.2148C41.9141 33.7266 40.8711 34.9805 39.7227 35.9766C39.2656 36.3633 38.9141 36.416 38.668 36.1348C38.4219 35.8535 38.4277 35.5488 38.6855 35.2207C39.7637 34.002 40.5957 32.6953 41.1816 31.3008C41.7676 29.8945 42.1074 28.7578 42.2012 27.8906C42.2246 27.8086 42.2012 27.7207 42.1309 27.627C42.0723 27.5332 41.9609 27.4688 41.7969 27.4336C41.3633 27.3398 41.1582 27.1172 41.1816 26.7656C41.2051 26.4141 41.4336 26.2383 41.8672 26.2383H43.2734C43.8359 26.2383 44.2051 26.3613 44.3809 26.6074C44.5684 26.8535 44.6562 27.1641 44.6445 27.5391ZM48.2656 26.0625C48.2656 25.7227 48.2246 25.5117 48.1426 25.4297C48.0723 25.3477 47.9609 25.2832 47.8086 25.2363C47.5273 25.1777 47.3047 25.1016 47.1406 25.0078C46.9766 24.9141 46.8945 24.7676 46.8945 24.5684C46.8945 24.1113 47.1523 23.8828 47.668 23.8828H49.5664C50.1758 23.8828 50.4805 24.1289 50.4805 24.6211V30.0527H52.3965C52.7715 30.0527 52.959 30.334 52.959 30.8965C52.959 31.459 52.7715 31.7402 52.3965 31.7402H50.4805V39.4395C50.4805 40.5176 49.918 41.0566 48.793 41.0566H48.2656V26.0625ZM59.5684 27.3984C59.1934 27.3984 59.0059 27.123 59.0059 26.5723C59.0059 26.0332 59.2051 25.7637 59.6035 25.7637H65.791C66.0488 25.7637 66.248 25.8867 66.3887 26.1328C66.5293 26.3672 66.5879 26.6074 66.5645 26.8535C66.3301 28.1543 65.5508 29.5254 64.2266 30.9668C62.9141 32.4082 61.5195 33.5449 60.043 34.377C59.3633 34.8105 58.918 34.8516 58.707 34.5C58.4961 34.1367 58.5605 33.832 58.9004 33.5859C60.3184 32.5898 61.4727 31.4824 62.3633 30.2637C63.2539 29.0449 63.7988 28.0898 63.998 27.3984H59.5684ZM68.6035 34.0078V26.0625C68.6035 25.7227 68.5625 25.5117 68.4805 25.4297C68.3984 25.3477 68.2812 25.2832 68.1289 25.2363C67.8477 25.1777 67.625 25.1016 67.4609 25.0078C67.3086 24.9141 67.2324 24.7676 67.2324 24.5684C67.2324 24.1113 67.4902 23.8828 68.0059 23.8828H69.8691C70.502 23.8828 70.8184 24.1582 70.8184 24.709V32.2852C70.8184 33.4336 70.25 34.0078 69.1133 34.0078H68.6035ZM64.877 39.3691H68.5332V36.2578H64.877V39.3691ZM69.8164 34.623C70.3789 34.623 70.6602 34.9453 70.6602 35.5898V38.2793C70.6602 38.7246 70.5898 39.0938 70.4492 39.3867C70.7539 39.457 70.9062 39.7207 70.9062 40.1777C70.9062 40.7285 70.6895 41.0039 70.2559 41.0039H64.4023C64.1211 41.3438 63.7344 41.5137 63.2422 41.5137H62.7324V37.0312C62.7324 36.5625 62.7148 36.2812 62.6797 36.1875C62.6445 36.082 62.5508 36 62.3984 35.9414C62.2578 35.8594 62.1406 35.7715 62.0469 35.6777C61.9531 35.584 61.9062 35.4434 61.9062 35.2559C61.9062 34.834 62.1523 34.623 62.6445 34.623H69.8164ZM73.1211 28.1367C72.7461 28.1367 72.5586 27.8613 72.5586 27.3105C72.5586 26.7715 72.7695 26.502 73.1914 26.502H78.0605C78.3418 26.502 78.5586 26.625 78.7109 26.8711C78.8633 27.1055 78.9043 27.4043 78.834 27.7676C78.5176 28.9277 78.0195 30.0762 77.3398 31.2129L79.6074 34.1836C79.7715 34.4062 79.8535 34.6582 79.8535 34.9395C79.8535 35.209 79.7363 35.4258 79.502 35.5898C79.291 35.7539 79.0625 35.8184 78.8164 35.7832C78.582 35.7363 78.3711 35.5664 78.1836 35.2734L76.4961 32.5137C75.5469 33.8145 74.5508 34.8809 73.5078 35.7129C72.9805 36.1348 72.5996 36.2109 72.3652 35.9414C72.1309 35.6602 72.1309 35.3848 72.3652 35.1152C73.4199 34.0254 74.2871 32.8418 74.9668 31.5645C75.6465 30.2754 76.1387 29.1328 76.4434 28.1367H73.1211ZM85.5137 24.709V39.3867C85.5137 40.5117 84.957 41.0742 83.8438 41.0742H83.4219V26.0098C83.4219 25.6934 83.3926 25.4941 83.334 25.4121C83.2871 25.3184 83.1758 25.248 83 25.2012C82.707 25.1426 82.4902 25.0723 82.3496 24.9902C82.209 24.9082 82.1387 24.7676 82.1387 24.5684C82.1387 24.1113 82.4141 23.8828 82.9648 23.8828H84.582C85.2031 23.8828 85.5137 24.1582 85.5137 24.709ZM82.4902 25.6055V38.3145C82.4902 39.4395 81.957 40.002 80.8906 40.002H80.5039V31.8633H78.9219C78.5352 31.8633 78.3418 31.5996 78.3418 31.0723C78.3418 30.5098 78.5352 30.2285 78.9219 30.2285H80.5039V26.8711C80.5039 26.543 80.4688 26.3379 80.3984 26.2559C80.3281 26.1738 80.2109 26.1094 80.0469 26.0625C79.7656 25.9922 79.5605 25.9219 79.4316 25.8516C79.3027 25.7695 79.2383 25.6406 79.2383 25.4648C79.2383 25.0312 79.4844 24.8145 79.9766 24.8145H81.5586C82.1797 24.8145 82.4902 25.0781 82.4902 25.6055ZM90.4883 29.8242C90.4883 29.5312 90.4707 29.332 90.4355 29.2266C90.4004 29.1094 90.3242 29.0273 90.207 28.9805C90.0664 28.9336 89.9316 28.8809 89.8027 28.8223C89.6855 28.752 89.627 28.6113 89.627 28.4004C89.627 28.0254 89.8848 27.8379 90.4004 27.8379H91.6484C92.3164 27.8379 92.6504 28.1016 92.6504 28.6289V32.0215H94.4961V27.3105H88.6777C88.3027 27.3105 88.1152 27.0352 88.1152 26.4844C88.1152 25.9453 88.3086 25.6758 88.6953 25.6758H98.1523C98.5742 25.6758 98.7852 25.9453 98.7852 26.4844C98.7852 27.0352 98.5918 27.3105 98.2051 27.3105H96.7109V32.0215H98.2051C98.5918 32.0215 98.7852 32.2969 98.7852 32.8477C98.7852 33.3633 98.5742 33.6211 98.1523 33.6211H88.6953C88.3086 33.6211 88.1152 33.3633 88.1152 32.8477C88.1152 32.2969 88.3027 32.0215 88.6777 32.0215H90.4883V29.8242ZM100.033 38.3496H87.0957C86.7207 38.3496 86.5332 38.0684 86.5332 37.5059C86.5332 36.9434 86.7207 36.6621 87.0957 36.6621H100.033C100.455 36.6621 100.666 36.9434 100.666 37.5059C100.666 38.0684 100.455 38.3496 100.033 38.3496ZM110.158 27.8555C110.158 27.3164 109.941 26.8594 109.508 26.4844C109.086 26.0977 108.594 25.9043 108.031 25.9043C107.48 25.9043 106.994 26.0977 106.572 26.4844C106.15 26.8594 105.939 27.3164 105.939 27.8555C105.939 28.3711 106.15 28.8105 106.572 29.1738C106.994 29.5371 107.48 29.7188 108.031 29.7188C108.594 29.7188 109.086 29.5371 109.508 29.1738C109.941 28.8105 110.158 28.3711 110.158 27.8555ZM103.707 27.8555C103.707 26.8828 104.111 26.0391 104.92 25.3242C105.729 24.5977 106.766 24.2344 108.031 24.2344C109.297 24.2344 110.334 24.5977 111.143 25.3242C111.963 26.0391 112.373 26.8828 112.373 27.8555C112.373 28.8047 111.969 29.6309 111.16 30.334C111.078 30.4043 110.984 30.4746 110.879 30.5449H111.195C111.605 30.5449 111.811 30.7031 111.811 31.0195V32.6191H114.465C114.898 32.6191 115.115 32.8887 115.115 33.4277C115.115 33.9785 114.898 34.2539 114.465 34.2539H101.545C101.17 34.2539 100.982 33.9785 100.982 33.4277C100.982 32.8887 101.17 32.6191 101.545 32.6191H104.85V32.3555C104.85 31.9805 104.832 31.7637 104.797 31.7051C104.762 31.6348 104.686 31.5762 104.568 31.5293C104.404 31.4355 104.27 31.3652 104.164 31.3184C104.07 31.2715 104.023 31.1602 104.023 30.9844C104.023 30.6445 104.299 30.4746 104.85 30.4746H105.096C105.037 30.4277 104.984 30.3809 104.938 30.334C104.117 29.6309 103.707 28.8047 103.707 27.8555ZM108.998 31.3184C108.682 31.3652 108.359 31.3887 108.031 31.3887C107.691 31.3887 107.363 31.3652 107.047 31.3184V32.6191H109.613V32.5137C109.613 32.1387 109.596 31.8867 109.561 31.7578C109.537 31.6289 109.461 31.541 109.332 31.4941C109.191 31.4238 109.08 31.3652 108.998 31.3184ZM103.9 38.0156C103.9 37.1133 104.287 36.3164 105.061 35.625C105.834 34.9336 106.824 34.5879 108.031 34.5879C109.227 34.5879 110.217 34.9336 111.002 35.625C111.787 36.3164 112.18 37.1133 112.18 38.0156C112.18 38.9062 111.787 39.6973 111.002 40.3887C110.217 41.0801 109.227 41.4258 108.031 41.4258C106.824 41.4258 105.834 41.0801 105.061 40.3887C104.287 39.6973 103.9 38.9062 103.9 38.0156ZM110 38.0156C110 37.5352 109.807 37.125 109.42 36.7852C109.045 36.4336 108.576 36.2578 108.014 36.2578C107.475 36.2578 107.018 36.4336 106.643 36.7852C106.268 37.125 106.08 37.5352 106.08 38.0156C106.08 38.4844 106.268 38.8887 106.643 39.2285C107.018 39.5801 107.475 39.7559 108.014 39.7559C108.576 39.7559 109.045 39.5801 109.42 39.2285C109.807 38.8887 110 38.4844 110 38.0156ZM116.398 27.3633C116.023 27.3633 115.836 27.0879 115.836 26.5371C115.836 25.998 116.035 25.7285 116.434 25.7285H121.971C122.357 25.7285 122.65 25.8516 122.85 26.0977C123.049 26.3438 123.096 26.6543 122.99 27.0293C122.709 27.9434 122.146 28.9688 121.303 30.1055L123.834 32.7246C124.057 32.959 124.162 33.2051 124.15 33.4629C124.15 33.709 124.086 33.8965 123.957 34.0254C123.746 34.2129 123.5 34.3066 123.219 34.3066C122.938 34.3066 122.697 34.1836 122.498 33.9375L120.354 31.2656C119.205 32.6016 117.969 33.6211 116.645 34.3242C115.988 34.6992 115.596 34.7168 115.467 34.377C115.338 34.0371 115.432 33.7324 115.748 33.4629C116.896 32.5371 117.875 31.5059 118.684 30.3691C119.504 29.2324 120.072 28.2305 120.389 27.3633H116.398ZM125.434 26.0625C125.434 25.7227 125.393 25.5117 125.311 25.4297C125.229 25.3477 125.111 25.2832 124.959 25.2363C124.678 25.1777 124.455 25.1016 124.291 25.0078C124.139 24.9141 124.062 24.7676 124.062 24.5684C124.062 24.1113 124.32 23.8828 124.836 23.8828H126.699C127.332 23.8828 127.648 24.1523 127.648 24.6914V35.2031C127.648 36.3281 127.08 36.8906 125.943 36.8906H125.434V26.0625ZM127.719 40.8809H121.215C120.031 40.8809 119.439 40.3477 119.439 39.2812V37.2773C119.439 36.9375 119.393 36.7266 119.299 36.6445C119.217 36.5625 119.094 36.4922 118.93 36.4336C118.625 36.3516 118.432 36.2637 118.35 36.1699C118.268 36.0762 118.227 35.9414 118.227 35.7656C118.227 35.3555 118.455 35.1504 118.912 35.1504H120.723C121.344 35.1504 121.654 35.4199 121.654 35.959V38.8418C121.654 39.0996 121.76 39.2285 121.971 39.2285H127.789C128.176 39.2285 128.369 39.5039 128.369 40.0547C128.369 40.6055 128.152 40.8809 127.719 40.8809Z" fill="white"/>
</svg>
