<svg width="263" height="171" viewBox="0 0 263 171" fill="none" xmlns="http://www.w3.org/2000/svg">
<g clip-path="url(#clip0)">
<rect y="37" width="263" height="44" fill="#F10202"/>
<path d="M14.3105 99.9873C14.3105 97.7542 15.0625 95.8971 16.5664 94.416C18.0931 92.9349 20.0299 92.1943 22.377 92.1943C24.7467 92.1943 26.7064 92.9235 28.2559 94.3818C29.3268 95.43 30.0218 96.6605 30.3408 98.0732H33.8613V92.7412C33.8613 92.1488 33.7816 91.7728 33.6221 91.6133C33.4626 91.4538 33.2347 91.3285 32.9385 91.2373C32.3916 91.1234 31.9587 90.9753 31.6396 90.793C31.3434 90.6107 31.1953 90.3258 31.1953 89.9385C31.1953 89.0498 31.6966 88.6055 32.6992 88.6055H36.3223C37.5527 88.6055 38.168 89.1296 38.168 90.1777V110.617C38.168 112.805 37.0628 113.898 34.8525 113.898H33.8613V101.252H30.4434C30.2155 102.915 29.4863 104.34 28.2559 105.524C26.7064 107.006 24.7467 107.746 22.377 107.746C20.0299 107.746 18.0931 107.017 16.5664 105.559C15.0625 104.077 14.3105 102.22 14.3105 99.9873ZM26.2051 99.9531C26.2051 98.6543 25.8291 97.5719 25.0771 96.7061C24.348 95.8402 23.4479 95.4072 22.377 95.4072C21.3516 95.4072 20.4743 95.8402 19.7451 96.7061C19.016 97.5719 18.6514 98.6543 18.6514 99.9531C18.6514 101.252 19.016 102.323 19.7451 103.166C20.4743 104.009 21.3516 104.431 22.377 104.431C23.4479 104.431 24.348 104.009 25.0771 103.166C25.8291 102.323 26.2051 101.252 26.2051 99.9531ZM38.3047 121.657H25.6582C23.3568 121.657 22.2061 120.62 22.2061 118.547V114.65C22.2061 113.99 22.1149 113.579 21.9326 113.42C21.7731 113.26 21.5339 113.124 21.2148 113.01C20.6224 112.85 20.2464 112.679 20.0869 112.497C19.9274 112.315 19.8477 112.053 19.8477 111.711C19.8477 110.913 20.292 110.515 21.1807 110.515H24.7012C25.9089 110.515 26.5127 111.039 26.5127 112.087V117.692C26.5127 118.194 26.7178 118.444 27.1279 118.444H38.4414C39.1934 118.444 39.5693 118.98 39.5693 120.051C39.5693 121.122 39.1478 121.657 38.3047 121.657ZM42.6455 96.877C41.9163 96.877 41.5518 96.3415 41.5518 95.2705C41.5518 94.2223 41.9619 93.6982 42.7822 93.6982H52.25C52.7969 93.6982 53.2184 93.9375 53.5146 94.416C53.8109 94.8717 53.8906 95.4528 53.7539 96.1592C53.1387 98.415 52.1702 100.648 50.8486 102.858L55.2578 108.635C55.5768 109.068 55.7363 109.558 55.7363 110.104C55.7363 110.629 55.5085 111.05 55.0527 111.369C54.6426 111.688 54.1982 111.813 53.7197 111.745C53.264 111.654 52.8538 111.324 52.4893 110.754L49.208 105.388C47.3623 107.917 45.4255 109.991 43.3975 111.608C42.3721 112.429 41.6315 112.577 41.1758 112.053C40.7201 111.506 40.7201 110.97 41.1758 110.446C43.2266 108.327 44.9128 106.026 46.2344 103.542C47.556 101.035 48.513 98.8138 49.1055 96.877H42.6455ZM66.7422 90.2119V118.752C66.7422 120.939 65.6598 122.033 63.4951 122.033H62.6748V92.7412C62.6748 92.126 62.6178 91.7386 62.5039 91.5791C62.4128 91.3968 62.1963 91.2601 61.8545 91.1689C61.2848 91.055 60.8633 90.9183 60.5898 90.7588C60.3164 90.5993 60.1797 90.3258 60.1797 89.9385C60.1797 89.0498 60.7152 88.6055 61.7861 88.6055H64.9307C66.1383 88.6055 66.7422 89.141 66.7422 90.2119ZM60.8633 91.9551V116.667C60.8633 118.854 59.8265 119.948 57.7529 119.948H57.001V104.123H53.9248C53.1729 104.123 52.7969 103.61 52.7969 102.585C52.7969 101.491 53.1729 100.944 53.9248 100.944H57.001V94.416C57.001 93.778 56.9326 93.3792 56.7959 93.2197C56.6592 93.0602 56.4313 92.9349 56.1123 92.8438C55.5654 92.707 55.1667 92.5703 54.916 92.4336C54.6654 92.2741 54.54 92.0234 54.54 91.6816C54.54 90.8385 55.0186 90.417 55.9756 90.417H59.0518C60.2594 90.417 60.8633 90.9297 60.8633 91.9551ZM75.3555 107.78H85.1309C85.8372 107.78 86.1904 108.304 86.1904 109.353C86.1904 110.424 85.7689 110.959 84.9258 110.959H72.4502C70.9463 110.959 70.1943 110.161 70.1943 108.566V97.3896C70.1943 96.7972 70.1602 96.4326 70.0918 96.2959C70.0462 96.1592 69.8981 96.0225 69.6475 95.8857C69.3057 95.7718 69.0094 95.6237 68.7588 95.4414C68.5309 95.2591 68.417 94.9629 68.417 94.5527C68.417 93.7552 68.9183 93.3564 69.9209 93.3564H72.4844C73.8288 93.3564 74.501 93.8919 74.501 94.9629V106.823C74.501 107.461 74.7858 107.78 75.3555 107.78ZM87.5234 92.8438C87.5234 92.1829 87.4437 91.7728 87.2842 91.6133C87.1475 91.4538 86.931 91.3285 86.6348 91.2373C86.0879 91.1234 85.6549 90.9753 85.3359 90.793C85.0169 90.6107 84.8574 90.3258 84.8574 89.9385C84.8574 89.0498 85.3587 88.6055 86.3613 88.6055H90.0527C91.2376 88.6055 91.8301 89.084 91.8301 90.041V100.603H95.5557C96.2848 100.603 96.6494 101.149 96.6494 102.243C96.6494 103.337 96.2848 103.884 95.5557 103.884H91.8301V118.854C91.8301 120.951 90.7363 121.999 88.5488 121.999H87.5234V92.8438ZM112.338 92.8096H128.642C129.713 92.8096 130.248 93.4818 130.248 94.8262C130.248 97.4238 130.077 100.056 129.735 102.722C129.416 105.388 128.938 107.564 128.3 109.25C128.163 109.637 127.878 109.945 127.445 110.173C127.012 110.401 126.557 110.412 126.078 110.207C125.759 110.093 125.531 109.911 125.395 109.66C125.258 109.387 125.212 108.999 125.258 108.498C125.508 107.062 125.668 105.673 125.736 104.328C125.805 102.961 125.839 100.204 125.839 96.0566H112.27C111.563 96.0566 111.21 95.5098 111.21 94.416C111.21 93.3451 111.586 92.8096 112.338 92.8096ZM117.636 113.454V106.584C117.636 106.014 117.567 105.638 117.431 105.456C117.294 105.251 117.021 105.091 116.61 104.978C116.246 104.864 115.961 104.727 115.756 104.567C115.551 104.385 115.448 104.146 115.448 103.85C115.448 103.052 115.984 102.653 117.055 102.653H120.131C121.339 102.653 121.942 103.2 121.942 104.294V113.454H133.871C134.691 113.454 135.102 114.035 135.102 115.197C135.102 116.223 134.691 116.735 133.871 116.735H108.715C107.986 116.735 107.621 116.223 107.621 115.197C107.621 114.035 107.986 113.454 108.715 113.454H117.636ZM137.597 95.8174C136.868 95.8174 136.503 95.2819 136.503 94.2109C136.503 93.1628 136.902 92.6387 137.699 92.6387H147.851C148.375 92.6387 148.751 92.8779 148.979 93.3564C149.206 93.835 149.298 94.3135 149.252 94.792C148.796 97.3896 147.554 99.9417 145.526 102.448C143.498 104.955 141.117 107.04 138.383 108.703C137.175 109.501 136.343 109.603 135.888 109.011C135.432 108.418 135.512 107.826 136.127 107.233C138.406 105.502 140.297 103.519 141.801 101.286C143.327 99.0303 144.262 97.2074 144.604 95.8174H137.597ZM161.522 90.2461V105.388C161.522 107.644 160.44 108.771 158.275 108.771H157.455V100.808H154.687V105.285C154.687 107.382 153.684 108.43 151.679 108.43H150.858V94.4502C150.858 93.7894 150.779 93.3792 150.619 93.2197C150.482 93.0602 150.255 92.9349 149.936 92.8438C149.389 92.707 148.979 92.5589 148.705 92.3994C148.432 92.2399 148.295 91.9893 148.295 91.6475C148.295 90.8271 148.773 90.417 149.73 90.417H152.909C154.094 90.417 154.687 90.9069 154.687 91.8867V97.6631H157.455V92.707C157.455 92.1146 157.398 91.7386 157.284 91.5791C157.193 91.3968 156.977 91.2601 156.635 91.1689C156.065 91.055 155.644 90.9183 155.37 90.7588C155.097 90.5993 154.96 90.3258 154.96 89.9385C154.96 89.0498 155.495 88.6055 156.566 88.6055H159.711C160.919 88.6055 161.522 89.1523 161.522 90.2461ZM142.997 113.146C142.382 113.146 142.074 112.611 142.074 111.54C142.074 110.492 142.393 109.968 143.031 109.968H159.745C160.679 109.968 161.146 110.503 161.146 111.574V119.128C161.146 121.498 160.132 122.683 158.104 122.683H156.874V113.146H142.997ZM165.453 96.5693C164.724 96.5693 164.359 96.0339 164.359 94.9629C164.359 93.8919 164.747 93.3564 165.521 93.3564H178.476C179.547 93.3564 180.082 94.0856 180.082 95.5439C180.082 97.458 179.911 99.5999 179.569 101.97C179.25 104.317 178.874 106.151 178.441 107.473C178.282 107.906 177.997 108.236 177.587 108.464C177.177 108.692 176.732 108.726 176.254 108.566C175.889 108.452 175.639 108.282 175.502 108.054C175.365 107.803 175.308 107.416 175.331 106.892C175.559 105.228 175.673 103.542 175.673 101.833C175.673 100.101 175.673 98.3467 175.673 96.5693H165.453ZM182.304 92.8779C182.304 92.1943 182.213 91.7728 182.03 91.6133C181.848 91.4538 181.586 91.3285 181.244 91.2373C180.788 91.1006 180.39 90.9525 180.048 90.793C179.729 90.6107 179.569 90.3258 179.569 89.9385C179.569 89.0498 180.048 88.6055 181.005 88.6055H184.833C186.018 88.6055 186.61 89.084 186.61 90.041V100.944H190.336C191.065 100.944 191.43 101.491 191.43 102.585C191.43 103.679 191.065 104.226 190.336 104.226H186.61V118.854C186.61 120.951 185.517 121.999 183.329 121.999H182.304V112.121C182.235 112.395 182.064 112.622 181.791 112.805C181.13 113.215 180.082 113.557 178.646 113.83C177.211 114.104 175.445 114.24 173.349 114.24H164.325C163.596 114.24 163.231 113.705 163.231 112.634C163.231 111.586 163.596 111.062 164.325 111.062H169.076V105.456C169.076 104.818 169.031 104.396 168.939 104.191C168.848 103.986 168.666 103.838 168.393 103.747C168.028 103.656 167.72 103.531 167.47 103.371C167.219 103.189 167.094 102.938 167.094 102.619C167.094 101.822 167.698 101.423 168.905 101.423H171.537C172.768 101.423 173.383 101.97 173.383 103.063V111.062H173.485C175.012 111.062 176.231 111.05 177.143 111.027C178.077 111.005 179.022 110.902 179.979 110.72C181.347 110.424 182.121 110.606 182.304 111.267V111.335V92.8779ZM201.513 100.09C201.011 99.9303 200.692 99.7708 200.556 99.6113C200.442 99.4518 200.408 99.2467 200.453 98.9961C200.544 98.6315 200.818 98.4036 201.273 98.3125C201.729 98.1986 202.185 98.1758 202.641 98.2441C204.031 98.3581 205.204 98.8594 206.161 99.748C207.118 100.614 207.597 101.708 207.597 103.029C207.597 104.715 206.89 106.174 205.478 107.404C204.088 108.612 202.333 109.216 200.214 109.216C198.072 109.216 196.306 108.578 194.916 107.302C193.526 106.026 192.831 104.488 192.831 102.688C192.831 101.525 193.093 100.5 193.617 99.6113C194.141 98.6999 194.757 98.0618 195.463 97.6973H192.626C191.874 97.6973 191.498 97.1732 191.498 96.125C191.498 95.1224 191.863 94.6211 192.592 94.6211H207.323C208.144 94.6211 208.554 95.1224 208.554 96.125C208.554 97.1732 208.144 97.6973 207.323 97.6973H202.606C200.806 97.6973 199.451 98.1644 198.539 99.0986C197.628 100.033 197.172 101.229 197.172 102.688C197.172 103.599 197.479 104.374 198.095 105.012C198.733 105.627 199.462 105.935 200.282 105.935C201.08 105.935 201.775 105.673 202.367 105.148C202.96 104.602 203.267 103.895 203.29 103.029C203.336 102.255 203.188 101.628 202.846 101.149C202.504 100.648 202.06 100.295 201.513 100.09ZM195.805 92.0234L194.916 91.2031C194.643 90.9297 194.494 90.6562 194.472 90.3828C194.449 90.1094 194.517 89.8473 194.677 89.5967C194.95 89.2321 195.281 89.027 195.668 88.9814C196.078 88.9359 196.534 89.0384 197.035 89.2891C198.015 89.7448 198.904 90.0524 199.701 90.2119C200.499 90.3486 201.581 90.417 202.948 90.417C203.974 90.417 204.486 90.9297 204.486 91.9551C204.486 92.502 204.315 92.9007 203.974 93.1514C203.632 93.3792 203.256 93.4932 202.846 93.4932L199.804 93.459C198.14 93.459 196.807 92.9805 195.805 92.0234ZM210.707 92.8438C210.707 92.1829 210.627 91.7842 210.468 91.6475C210.331 91.488 210.103 91.3512 209.784 91.2373C209.26 91.1006 208.839 90.9525 208.52 90.793C208.201 90.6107 208.041 90.3258 208.041 89.9385C208.041 89.0498 208.542 88.6055 209.545 88.6055H213.236C214.421 88.6055 215.014 89.084 215.014 90.041V98.7568H218.739C219.468 98.7568 219.833 99.3151 219.833 100.432C219.833 101.525 219.468 102.072 218.739 102.072H215.014V105.695C215.014 107.792 213.92 108.84 211.732 108.84H210.707V92.8438ZM203.495 118.889H210.604V113.557H203.495V118.889ZM213.134 110.344C214.228 110.344 214.774 110.982 214.774 112.258V116.77C214.774 117.635 214.638 118.353 214.364 118.923C214.934 119.06 215.219 119.572 215.219 120.461C215.219 121.532 214.797 122.067 213.954 122.067H202.401C201.9 122.614 201.216 122.888 200.351 122.888H199.325V115.061C199.325 114.149 199.291 113.591 199.223 113.386C199.154 113.181 198.983 113.021 198.71 112.907C198.437 112.771 198.197 112.611 197.992 112.429C197.81 112.246 197.719 111.962 197.719 111.574C197.719 110.754 198.197 110.344 199.154 110.344H213.134ZM221.508 93.6982H233.812C234.314 93.6982 234.69 93.9033 234.94 94.3135C235.214 94.7008 235.316 95.1908 235.248 95.7832C235.043 97.3555 234.758 98.8936 234.394 100.397H236.991V94.416C236.991 93.778 236.934 93.3792 236.82 93.2197C236.706 93.0602 236.49 92.9349 236.171 92.8438C235.647 92.707 235.237 92.5703 234.94 92.4336C234.644 92.2741 234.496 92.0234 234.496 91.6816C234.496 90.8385 234.975 90.417 235.932 90.417H238.939C240.147 90.417 240.751 90.9297 240.751 91.9551V116.667C240.751 118.854 239.771 119.948 237.812 119.948H236.991V103.576H233.915C233.71 103.576 233.55 103.542 233.437 103.474C233.231 104.021 233.015 104.567 232.787 105.114C231.534 108.031 230.167 110.401 228.686 112.224C227.842 113.249 227.068 113.534 226.361 113.078C225.678 112.6 225.552 111.996 225.985 111.267C227.216 109.375 228.264 107.108 229.13 104.465C230.019 101.822 230.6 99.2923 230.873 96.877H229.027C228.549 99.5658 227.706 102.095 226.498 104.465C225.29 106.835 224.037 108.806 222.738 110.378C221.804 111.517 221.075 111.813 220.551 111.267C220.027 110.697 219.993 110.002 220.448 109.182C221.405 107.723 222.328 105.821 223.217 103.474C224.128 101.104 224.709 98.9049 224.96 96.877H221.474C220.744 96.877 220.38 96.3415 220.38 95.2705C220.38 94.2223 220.756 93.6982 221.508 93.6982ZM242.46 92.7412C242.46 92.126 242.403 91.7386 242.289 91.5791C242.198 91.3968 241.981 91.2601 241.64 91.1689C241.07 91.055 240.648 90.9183 240.375 90.7588C240.124 90.5993 239.999 90.3258 239.999 89.9385C239.999 89.0498 240.523 88.6055 241.571 88.6055H244.647C245.855 88.6055 246.459 89.141 246.459 90.2119V118.752C246.459 120.939 245.422 122.033 243.349 122.033H242.46V92.7412ZM16.7031 147.302C15.9512 147.302 15.5752 146.778 15.5752 145.729C15.5752 144.681 15.9398 144.157 16.6689 144.157H19.0957V140.056C19.0957 139.486 19.0615 139.099 18.9932 138.894C18.9476 138.666 18.8109 138.506 18.583 138.415C18.3096 138.324 18.0475 138.221 17.7969 138.107C17.569 137.971 17.4551 137.697 17.4551 137.287C17.4551 136.558 17.9564 136.193 18.959 136.193H21.3857C22.6846 136.193 23.334 136.706 23.334 137.731V144.157H25.7266V135.271H16.6689C15.9398 135.271 15.5752 134.735 15.5752 133.664C15.5752 132.616 15.9512 132.092 16.7031 132.092H32.1523C32.9499 132.092 33.3486 132.616 33.3486 133.664C33.3486 134.735 32.984 135.271 32.2549 135.271H30.0332V144.157H32.6309C33.3372 144.157 33.6904 144.681 33.6904 145.729C33.6904 146.778 33.3031 147.302 32.5283 147.302H16.7031ZM35.5703 149.182V143.61H32.084C31.2181 143.61 30.7852 143.075 30.7852 142.004C30.7852 140.979 31.2181 140.466 32.084 140.466H35.5703V138.859H32.084C31.2181 138.859 30.7852 138.324 30.7852 137.253C30.7852 136.228 31.2181 135.715 32.084 135.715H35.5703V132.844C35.5703 132.183 35.4906 131.773 35.3311 131.613C35.1715 131.454 34.9437 131.328 34.6475 131.237C34.1234 131.123 33.7018 130.975 33.3828 130.793C33.0638 130.611 32.9043 130.326 32.9043 129.938C32.9043 129.05 33.3828 128.605 34.3398 128.605H37.8945C39.125 128.605 39.7402 129.141 39.7402 130.212V145.798C39.7402 148.054 38.6807 149.182 36.5615 149.182H35.5703ZM24.0859 155.812C24.0859 153.876 24.8037 152.212 26.2393 150.822C27.6748 149.41 29.5205 148.703 31.7764 148.703C34.055 148.703 35.9121 149.41 37.3477 150.822C38.806 152.212 39.5352 153.876 39.5352 155.812C39.5352 157.681 38.806 159.299 37.3477 160.666C35.9121 162.033 34.055 162.717 31.7764 162.717C29.5205 162.717 27.6748 162.033 26.2393 160.666C24.8037 159.299 24.0859 157.681 24.0859 155.812ZM35.3311 155.744C35.3311 154.696 34.9779 153.807 34.2715 153.078C33.5879 152.326 32.7448 151.95 31.7422 151.95C30.7852 151.95 29.9762 152.326 29.3154 153.078C28.6546 153.807 28.3242 154.696 28.3242 155.744C28.3242 156.77 28.6546 157.647 29.3154 158.376C29.9762 159.105 30.7852 159.47 31.7422 159.47C32.7448 159.47 33.5879 159.105 34.2715 158.376C34.9779 157.647 35.3311 156.77 35.3311 155.744ZM44.3887 137.048C43.6595 137.048 43.2949 136.512 43.2949 135.441C43.2949 134.393 43.6709 133.869 44.4229 133.869H56.4541C57.0693 133.869 57.5023 134.108 57.7529 134.587C58.0264 135.043 58.1289 135.533 58.0605 136.057C57.5137 139.133 56.0212 142.163 53.583 145.148C51.1676 148.133 48.4447 150.549 45.4141 152.395C44.1152 153.238 43.2152 153.352 42.7139 152.736C42.2354 152.121 42.3265 151.517 42.9873 150.925C45.5166 148.988 47.7041 146.675 49.5498 143.986C51.3955 141.298 52.569 138.985 53.0703 137.048H44.3887ZM61.3076 132.844C61.3076 132.183 61.2279 131.773 61.0684 131.613C60.9316 131.454 60.7152 131.328 60.4189 131.237C59.8721 131.123 59.4391 130.975 59.1201 130.793C58.8011 130.611 58.6416 130.326 58.6416 129.938C58.6416 129.05 59.1429 128.605 60.1455 128.605H63.8369C65.0218 128.605 65.6143 129.084 65.6143 130.041V140.603H69.3398C70.069 140.603 70.4336 141.149 70.4336 142.243C70.4336 143.337 70.069 143.884 69.3398 143.884H65.6143V158.854C65.6143 160.951 64.5205 161.999 62.333 161.999H61.3076V132.844ZM82.6699 135.715C82.5104 137.606 81.8724 139.702 80.7559 142.004L86.9766 148.327C87.4779 148.806 87.7399 149.33 87.7627 149.899C87.8083 150.469 87.6715 150.913 87.3525 151.232C86.8512 151.711 86.2816 151.893 85.6436 151.779C85.0283 151.643 84.5156 151.324 84.1055 150.822L79.1836 144.807C77.3607 147.746 75.3327 150.184 73.0996 152.121C72.2109 152.873 71.5273 152.976 71.0488 152.429C70.5703 151.882 70.5817 151.289 71.083 150.651C73.1794 148.282 74.7972 145.741 75.9365 143.029C77.0758 140.295 77.7367 138.085 77.9189 136.398C77.9645 136.239 77.9189 136.068 77.7822 135.886C77.6683 135.703 77.4518 135.578 77.1328 135.51C76.2897 135.327 75.891 134.895 75.9365 134.211C75.9821 133.527 76.4264 133.186 77.2695 133.186H80.0039C81.0977 133.186 81.8154 133.425 82.1572 133.903C82.5218 134.382 82.6927 134.986 82.6699 135.715ZM89.7109 132.844C89.7109 132.183 89.6312 131.773 89.4717 131.613C89.335 131.454 89.1185 131.328 88.8223 131.237C88.2754 131.123 87.8424 130.975 87.5234 130.793C87.2044 130.611 87.0449 130.326 87.0449 129.938C87.0449 129.05 87.5462 128.605 88.5488 128.605H92.2402C93.4251 128.605 94.0176 129.084 94.0176 130.041V140.603H97.7432C98.4723 140.603 98.8369 141.149 98.8369 142.243C98.8369 143.337 98.4723 143.884 97.7432 143.884H94.0176V158.854C94.0176 160.951 92.9238 161.999 90.7363 161.999H89.7109V132.844ZM111.688 135.441C110.959 135.441 110.595 134.906 110.595 133.835C110.595 132.787 110.982 132.263 111.757 132.263H123.788C124.289 132.263 124.677 132.502 124.95 132.98C125.224 133.436 125.338 133.903 125.292 134.382C124.836 136.911 123.321 139.577 120.746 142.38C118.194 145.183 115.482 147.393 112.611 149.011C111.29 149.854 110.424 149.934 110.014 149.25C109.604 148.544 109.729 147.951 110.39 147.473C113.147 145.536 115.391 143.382 117.123 141.013C118.855 138.643 119.914 136.786 120.302 135.441H111.688ZM129.257 148.293V132.844C129.257 132.183 129.177 131.773 129.018 131.613C128.858 131.454 128.63 131.328 128.334 131.237C127.787 131.123 127.354 130.975 127.035 130.793C126.739 130.611 126.591 130.326 126.591 129.938C126.591 129.05 127.092 128.605 128.095 128.605H131.718C132.948 128.605 133.563 129.141 133.563 130.212V144.943C133.563 147.176 132.458 148.293 130.248 148.293H129.257ZM122.011 158.718H129.12V152.668H122.011V158.718ZM131.615 149.489C132.709 149.489 133.256 150.116 133.256 151.369V156.599C133.256 157.465 133.119 158.182 132.846 158.752C133.438 158.889 133.734 159.401 133.734 160.29C133.734 161.361 133.313 161.896 132.47 161.896H121.088C120.541 162.557 119.789 162.888 118.832 162.888H117.841V154.172C117.841 153.26 117.807 152.714 117.738 152.531C117.67 152.326 117.488 152.167 117.191 152.053C116.918 151.893 116.69 151.722 116.508 151.54C116.326 151.358 116.234 151.084 116.234 150.72C116.234 149.899 116.713 149.489 117.67 149.489H131.615ZM138.041 136.877C137.312 136.877 136.947 136.341 136.947 135.271C136.947 134.222 137.357 133.698 138.178 133.698H147.646C148.192 133.698 148.614 133.938 148.91 134.416C149.206 134.872 149.286 135.453 149.149 136.159C148.534 138.415 147.566 140.648 146.244 142.858L150.653 148.635C150.972 149.068 151.132 149.558 151.132 150.104C151.132 150.629 150.904 151.05 150.448 151.369C150.038 151.688 149.594 151.813 149.115 151.745C148.66 151.654 148.249 151.324 147.885 150.754L144.604 145.388C142.758 147.917 140.821 149.991 138.793 151.608C137.768 152.429 137.027 152.577 136.571 152.053C136.116 151.506 136.116 150.97 136.571 150.446C138.622 148.327 140.308 146.026 141.63 143.542C142.951 141.035 143.909 138.814 144.501 136.877H138.041ZM162.138 130.212V158.752C162.138 160.939 161.055 162.033 158.891 162.033H158.07V132.741C158.07 132.126 158.013 131.739 157.899 131.579C157.808 131.397 157.592 131.26 157.25 131.169C156.68 131.055 156.259 130.918 155.985 130.759C155.712 130.599 155.575 130.326 155.575 129.938C155.575 129.05 156.111 128.605 157.182 128.605H160.326C161.534 128.605 162.138 129.141 162.138 130.212ZM156.259 131.955V156.667C156.259 158.854 155.222 159.948 153.148 159.948H152.396V144.123H149.32C148.568 144.123 148.192 143.61 148.192 142.585C148.192 141.491 148.568 140.944 149.32 140.944H152.396V134.416C152.396 133.778 152.328 133.379 152.191 133.22C152.055 133.06 151.827 132.935 151.508 132.844C150.961 132.707 150.562 132.57 150.312 132.434C150.061 132.274 149.936 132.023 149.936 131.682C149.936 130.839 150.414 130.417 151.371 130.417H154.447C155.655 130.417 156.259 130.93 156.259 131.955ZM171.811 140.158C171.811 139.589 171.776 139.201 171.708 138.996C171.64 138.768 171.492 138.609 171.264 138.518C170.99 138.426 170.728 138.324 170.478 138.21C170.25 138.073 170.136 137.8 170.136 137.39C170.136 136.66 170.637 136.296 171.64 136.296H174.066C175.365 136.296 176.015 136.809 176.015 137.834V144.431H179.604V135.271H168.29C167.561 135.271 167.196 134.735 167.196 133.664C167.196 132.616 167.572 132.092 168.324 132.092H186.713C187.533 132.092 187.943 132.616 187.943 133.664C187.943 134.735 187.567 135.271 186.815 135.271H183.91V144.431H186.815C187.567 144.431 187.943 144.966 187.943 146.037C187.943 147.04 187.533 147.541 186.713 147.541H168.324C167.572 147.541 167.196 147.04 167.196 146.037C167.196 144.966 167.561 144.431 168.29 144.431H171.811V140.158ZM190.37 156.735H165.214C164.485 156.735 164.12 156.188 164.12 155.095C164.12 154.001 164.485 153.454 165.214 153.454H190.37C191.19 153.454 191.601 154.001 191.601 155.095C191.601 156.188 191.19 156.735 190.37 156.735ZM210.058 136.33C210.058 135.282 209.636 134.393 208.793 133.664C207.973 132.912 207.016 132.536 205.922 132.536C204.851 132.536 203.905 132.912 203.085 133.664C202.265 134.393 201.854 135.282 201.854 136.33C201.854 137.333 202.265 138.187 203.085 138.894C203.905 139.6 204.851 139.953 205.922 139.953C207.016 139.953 207.973 139.6 208.793 138.894C209.636 138.187 210.058 137.333 210.058 136.33ZM197.514 136.33C197.514 134.439 198.3 132.798 199.872 131.408C201.444 129.995 203.461 129.289 205.922 129.289C208.383 129.289 210.399 129.995 211.972 131.408C213.567 132.798 214.364 134.439 214.364 136.33C214.364 138.176 213.578 139.782 212.006 141.149C211.846 141.286 211.664 141.423 211.459 141.56H212.074C212.872 141.56 213.271 141.867 213.271 142.482V145.593H218.432C219.275 145.593 219.696 146.117 219.696 147.165C219.696 148.236 219.275 148.771 218.432 148.771H193.31C192.58 148.771 192.216 148.236 192.216 147.165C192.216 146.117 192.58 145.593 193.31 145.593H199.735V145.08C199.735 144.351 199.701 143.929 199.633 143.815C199.564 143.679 199.416 143.565 199.188 143.474C198.869 143.291 198.607 143.155 198.402 143.063C198.22 142.972 198.129 142.756 198.129 142.414C198.129 141.753 198.664 141.423 199.735 141.423H200.214C200.1 141.332 199.997 141.241 199.906 141.149C198.311 139.782 197.514 138.176 197.514 136.33ZM207.802 143.063C207.187 143.155 206.56 143.2 205.922 143.2C205.261 143.2 204.623 143.155 204.008 143.063V145.593H208.998V145.388C208.998 144.659 208.964 144.169 208.896 143.918C208.85 143.667 208.702 143.496 208.451 143.405C208.178 143.269 207.961 143.155 207.802 143.063ZM197.89 156.086C197.89 154.331 198.642 152.782 200.146 151.438C201.649 150.093 203.575 149.421 205.922 149.421C208.246 149.421 210.172 150.093 211.698 151.438C213.225 152.782 213.988 154.331 213.988 156.086C213.988 157.818 213.225 159.356 211.698 160.7C210.172 162.045 208.246 162.717 205.922 162.717C203.575 162.717 201.649 162.045 200.146 160.7C198.642 159.356 197.89 157.818 197.89 156.086ZM209.75 156.086C209.75 155.152 209.374 154.354 208.622 153.693C207.893 153.01 206.981 152.668 205.888 152.668C204.84 152.668 203.951 153.01 203.222 153.693C202.493 154.354 202.128 155.152 202.128 156.086C202.128 156.997 202.493 157.784 203.222 158.444C203.951 159.128 204.84 159.47 205.888 159.47C206.981 159.47 207.893 159.128 208.622 158.444C209.374 157.784 209.75 156.997 209.75 156.086ZM222.191 135.373C221.462 135.373 221.098 134.838 221.098 133.767C221.098 132.718 221.485 132.194 222.26 132.194H233.026C233.778 132.194 234.348 132.434 234.735 132.912C235.123 133.391 235.214 133.994 235.009 134.724C234.462 136.501 233.368 138.495 231.728 140.705L236.649 145.798C237.082 146.254 237.287 146.732 237.265 147.233C237.265 147.712 237.139 148.076 236.889 148.327C236.479 148.692 236 148.874 235.453 148.874C234.906 148.874 234.439 148.635 234.052 148.156L229.882 142.961C227.649 145.559 225.245 147.541 222.67 148.908C221.394 149.637 220.631 149.672 220.38 149.011C220.129 148.35 220.312 147.757 220.927 147.233C223.16 145.433 225.062 143.428 226.635 141.218C228.23 139.007 229.335 137.059 229.95 135.373H222.191ZM239.76 132.844C239.76 132.183 239.68 131.773 239.521 131.613C239.361 131.454 239.133 131.328 238.837 131.237C238.29 131.123 237.857 130.975 237.538 130.793C237.242 130.611 237.094 130.326 237.094 129.938C237.094 129.05 237.595 128.605 238.598 128.605H242.221C243.451 128.605 244.066 129.13 244.066 130.178V150.617C244.066 152.805 242.961 153.898 240.751 153.898H239.76V132.844ZM244.203 161.657H231.557C229.255 161.657 228.104 160.62 228.104 158.547V154.65C228.104 153.99 228.013 153.579 227.831 153.42C227.672 153.26 227.432 153.124 227.113 153.01C226.521 152.85 226.145 152.679 225.985 152.497C225.826 152.315 225.746 152.053 225.746 151.711C225.746 150.913 226.19 150.515 227.079 150.515H230.6C231.807 150.515 232.411 151.039 232.411 152.087V157.692C232.411 158.194 232.616 158.444 233.026 158.444H244.34C245.092 158.444 245.468 158.98 245.468 160.051C245.468 161.122 245.046 161.657 244.203 161.657Z" fill="black"/>
<path d="M29.6646 52.2V54.3H33.6396V58.925H36.2396V47.35H33.6396V52.2H29.6646ZM30.8646 56.8C27.5396 55.75 25.5896 53.25 25.5896 50.7V50.45H30.3146V48.375H18.2396V50.45H22.9896V50.675C22.9896 53.35 20.9396 56.15 17.4896 57.3L18.7396 59.3C21.3896 58.45 23.3146 56.6 24.3146 54.35C25.2896 56.375 27.1396 58 29.6646 58.8L30.8646 56.8ZM24.1146 67.675V65.675H36.2396V59.95H21.5396V61.975H33.6896V63.775H21.5646V69.7H36.9896V67.675H24.1146ZM47.4627 49.425H44.9627V53.5C44.9627 57.35 43.4127 61.4 40.2127 63.3L41.7877 65.25C43.9627 63.925 45.4377 61.55 46.2377 58.775C47.0127 61.3 48.3627 63.5 50.4127 64.75L51.8627 62.75C48.8377 60.85 47.4627 57.025 47.4627 53.375V49.425ZM52.7627 55.25H49.4377V57.35H52.7627V68.875H55.1877V47.775H52.7627V55.25ZM57.3627 47.35V69.925H59.8127V47.35H57.3627ZM79.6607 61.225H82.2357V47.35H79.6607V51.2H76.3857V53.275H79.6607V55.325H76.3857V57.4H79.6607V61.225ZM68.6607 51.05H71.5357V57.85C70.5607 57.9 69.6107 57.925 68.6607 57.95V51.05ZM76.5607 57.45C75.7357 57.55 74.8857 57.65 74.0107 57.675V51.05H76.0357V48.95H64.1357V51.05H66.1857V58C65.2607 58 64.3607 58 63.5357 58L63.8357 60.125C67.4607 60.125 72.4607 60.05 76.7107 59.325L76.5607 57.45ZM74.7107 67.95C71.4857 67.95 69.6857 67.175 69.6857 65.8C69.6857 64.375 71.4857 63.625 74.7107 63.625C77.9357 63.625 79.7607 64.375 79.7607 65.8C79.7607 67.175 77.9357 67.95 74.7107 67.95ZM74.7107 61.625C69.9857 61.625 67.1107 63.15 67.1107 65.8C67.1107 68.4 69.9857 69.925 74.7107 69.925C79.4357 69.925 82.3357 68.4 82.3357 65.8C82.3357 63.15 79.4357 61.625 74.7107 61.625ZM87.6338 49.725V51.825H95.5338C95.0088 57.025 92.0338 61 86.5088 63.825L87.9338 65.8C95.3088 62.075 98.1088 56.275 98.1088 49.725H87.6338ZM107.434 56.25H104.009V47.325H101.434V69.9H104.009V58.4H107.434V56.25ZM131.297 67.575H121.722V65.075H131.297V67.575ZM131.297 63.075H121.722V60.525H119.172V69.65H133.847V60.525H131.297V63.075ZM121.347 56.8C119.347 56.8 117.922 55.525 117.922 53.625C117.922 51.7 119.347 50.475 121.347 50.475C123.297 50.475 124.747 51.7 124.747 53.625C124.747 55.525 123.297 56.8 121.347 56.8ZM131.272 47.35V52.55H127.097C126.597 50.025 124.322 48.35 121.347 48.35C117.947 48.35 115.447 50.525 115.447 53.625C115.447 56.75 117.947 58.925 121.347 58.925C124.347 58.925 126.647 57.2 127.097 54.65H131.272V59.45H133.847V47.35H131.272ZM153.495 55.4H143.17V50.6H153.495V55.4ZM156.045 48.55H140.62V57.475H156.045V48.55ZM158.595 60.25H138.12V62.325H146.995V69.925H149.57V62.325H158.595V60.25ZM179.743 47.35H177.143V58.925H179.743V47.35ZM174.868 56.4C171.393 55.325 169.368 52.575 169.368 49.65V47.95H166.743V49.65C166.743 52.7 164.718 55.625 161.143 56.8L162.418 58.85C165.143 57.925 167.068 56.05 168.093 53.625C169.118 55.85 171.018 57.575 173.618 58.425L174.868 56.4ZM167.518 67.7V65.725H179.743V60H164.943V62H177.193V63.85H164.993V69.725H180.418V67.7H167.518ZM197.566 58.05C194.191 56.875 192.266 54.05 192.266 51.25V50.825H196.966V48.75H184.891V50.825H189.666V51.275C189.666 54.325 187.616 57.3 184.116 58.5L185.441 60.525C188.116 59.6 190.016 57.65 191.016 55.225C191.991 57.4 193.791 59.175 196.291 60.05L197.566 58.05ZM187.616 64.025H200.266V69.925H202.841V61.95H187.616V64.025ZM200.266 47.325V53H196.316V55.125H200.266V60.825H202.841V47.325H200.266ZM213.629 68H224.129V65.625H220.529V49.6H218.354C217.304 50.25 216.079 50.675 214.354 51V52.825H217.654V65.625H213.629V68ZM234.362 50.45C236.337 50.45 237.712 51.475 237.712 53.05C237.712 54.65 236.337 55.675 234.362 55.675C232.412 55.675 231.012 54.65 231.012 53.05C231.012 51.475 232.412 50.45 234.362 50.45ZM234.362 57.8C237.737 57.8 240.187 55.85 240.187 53.05C240.187 50.275 237.737 48.325 234.362 48.325C230.987 48.325 228.537 50.275 228.537 53.05C228.537 55.85 230.987 57.8 234.362 57.8ZM241.637 58.65C236.762 59.375 231.087 59.45 227.012 59.45L227.312 61.575C229.062 61.575 231.062 61.55 233.187 61.475V69.25H235.762V61.325C237.762 61.175 239.837 60.95 241.812 60.55L241.637 58.65ZM243.112 47.35V69.95H245.687V47.35H243.112Z" fill="white"/>
<path d="M17.7708 25H26.1708V23.1H23.2908V10.28H21.5508C20.7108 10.8 19.7308 11.14 18.3508 11.4V12.86H20.9908V23.1H17.7708V25ZM33.157 25.26C36.037 25.26 37.917 22.7 37.917 17.58C37.917 12.5 36.037 10 33.157 10C30.257 10 28.397 12.48 28.397 17.58C28.397 22.7 30.257 25.26 33.157 25.26ZM33.157 23.44C31.657 23.44 30.597 21.84 30.597 17.58C30.597 13.36 31.657 11.82 33.157 11.82C34.657 11.82 35.717 13.36 35.717 17.58C35.717 21.84 34.657 23.44 33.157 23.44ZM52.7833 21.82H54.8433V8.48H52.7833V10.68H47.9833V12.32H52.7833V14.1H47.9833V15.74H52.7833V21.82ZM49.9833 16.98C47.4833 17.42 45.3033 17.56 42.9633 17.58V9.72H40.9033V19.28H42.3033C44.9833 19.28 47.3833 19.16 50.1833 18.66L49.9833 16.98ZM45.1833 24.52V20.64H43.1233V26.2H55.3033V24.52H45.1833ZM75.0539 14.92H66.7939V11.08H75.0539V14.92ZM77.0939 9.44H64.7539V16.58H77.0939V9.44ZM79.1339 18.8H62.7539V20.46H69.8539V26.54H71.9139V20.46H79.1339V18.8ZM87.4923 9.98H85.4323V12.94C85.4323 16.28 83.6723 19.7 80.8523 21.08L82.1123 22.74C84.1723 21.68 85.6923 19.58 86.4723 17.08C87.2523 19.44 88.6923 21.4 90.6323 22.4L91.8923 20.76C89.1723 19.42 87.4923 16.16 87.4923 12.94V9.98ZM97.9723 15.64H95.1523V8.48H93.0923V26.54H95.1523V17.34H97.9723V15.64ZM112.051 11.94C112.051 14.1 112.051 16.66 111.351 20.2L113.431 20.42C114.131 16.68 114.131 14.18 114.131 11.94V10.16H101.271V11.84H112.051V11.94ZM107.731 22.48V16.12H105.651V22.48H99.5708V24.18H115.891V22.48H107.731Z" fill="black"/>
</g>
<defs>
<clipPath id="clip0">
<rect width="263" height="171" fill="white"/>
</clipPath>
</defs>
</svg>
