<svg width="263" height="134" viewBox="0 0 263 134" fill="none" xmlns="http://www.w3.org/2000/svg">
<rect width="263" height="44" fill="#F10202"/>
<path d="M14.3105 62.9873C14.3105 60.7542 15.0625 58.8971 16.5664 57.416C18.0931 55.9349 20.0299 55.1943 22.377 55.1943C24.7467 55.1943 26.7064 55.9235 28.2559 57.3818C29.3268 58.43 30.0218 59.6605 30.3408 61.0732H33.8613V55.7412C33.8613 55.1488 33.7816 54.7728 33.6221 54.6133C33.4626 54.4538 33.2347 54.3285 32.9385 54.2373C32.3916 54.1234 31.9587 53.9753 31.6396 53.793C31.3434 53.6107 31.1953 53.3258 31.1953 52.9385C31.1953 52.0498 31.6966 51.6055 32.6992 51.6055H36.3223C37.5527 51.6055 38.168 52.1296 38.168 53.1777V73.6172C38.168 75.8047 37.0628 76.8984 34.8525 76.8984H33.8613V64.252H30.4434C30.2155 65.9154 29.4863 67.3395 28.2559 68.5244C26.7064 70.0055 24.7467 70.7461 22.377 70.7461C20.0299 70.7461 18.0931 70.0169 16.5664 68.5586C15.0625 67.0775 14.3105 65.2204 14.3105 62.9873ZM26.2051 62.9531C26.2051 61.6543 25.8291 60.5719 25.0771 59.7061C24.348 58.8402 23.4479 58.4072 22.377 58.4072C21.3516 58.4072 20.4743 58.8402 19.7451 59.7061C19.016 60.5719 18.6514 61.6543 18.6514 62.9531C18.6514 64.252 19.016 65.3229 19.7451 66.166C20.4743 67.0091 21.3516 67.4307 22.377 67.4307C23.4479 67.4307 24.348 67.0091 25.0771 66.166C25.8291 65.3229 26.2051 64.252 26.2051 62.9531ZM38.3047 84.6572H25.6582C23.3568 84.6572 22.2061 83.6204 22.2061 81.5469V77.6504C22.2061 76.9896 22.1149 76.5794 21.9326 76.4199C21.7731 76.2604 21.5339 76.1237 21.2148 76.0098C20.6224 75.8503 20.2464 75.6794 20.0869 75.4971C19.9274 75.3148 19.8477 75.0527 19.8477 74.7109C19.8477 73.9134 20.292 73.5146 21.1807 73.5146H24.7012C25.9089 73.5146 26.5127 74.0387 26.5127 75.0869V80.6924C26.5127 81.1937 26.7178 81.4443 27.1279 81.4443H38.4414C39.1934 81.4443 39.5693 81.9798 39.5693 83.0508C39.5693 84.1217 39.1478 84.6572 38.3047 84.6572ZM42.6455 59.877C41.9163 59.877 41.5518 59.3415 41.5518 58.2705C41.5518 57.2223 41.9619 56.6982 42.7822 56.6982H52.25C52.7969 56.6982 53.2184 56.9375 53.5146 57.416C53.8109 57.8717 53.8906 58.4528 53.7539 59.1592C53.1387 61.415 52.1702 63.6481 50.8486 65.8584L55.2578 71.6348C55.5768 72.0677 55.7363 72.5576 55.7363 73.1045C55.7363 73.6286 55.5085 74.0501 55.0527 74.3691C54.6426 74.6882 54.1982 74.8135 53.7197 74.7451C53.264 74.654 52.8538 74.3236 52.4893 73.7539L49.208 68.3877C47.3623 70.917 45.4255 72.9906 43.3975 74.6084C42.3721 75.4287 41.6315 75.5768 41.1758 75.0527C40.7201 74.5059 40.7201 73.9704 41.1758 73.4463C43.2266 71.3271 44.9128 69.0257 46.2344 66.542C47.556 64.0355 48.513 61.8138 49.1055 59.877H42.6455ZM66.7422 53.2119V81.752C66.7422 83.9395 65.6598 85.0332 63.4951 85.0332H62.6748V55.7412C62.6748 55.126 62.6178 54.7386 62.5039 54.5791C62.4128 54.3968 62.1963 54.2601 61.8545 54.1689C61.2848 54.055 60.8633 53.9183 60.5898 53.7588C60.3164 53.5993 60.1797 53.3258 60.1797 52.9385C60.1797 52.0498 60.7152 51.6055 61.7861 51.6055H64.9307C66.1383 51.6055 66.7422 52.141 66.7422 53.2119ZM60.8633 54.9551V79.667C60.8633 81.8545 59.8265 82.9482 57.7529 82.9482H57.001V67.123H53.9248C53.1729 67.123 52.7969 66.6104 52.7969 65.585C52.7969 64.4912 53.1729 63.9443 53.9248 63.9443H57.001V57.416C57.001 56.778 56.9326 56.3792 56.7959 56.2197C56.6592 56.0602 56.4313 55.9349 56.1123 55.8438C55.5654 55.707 55.1667 55.5703 54.916 55.4336C54.6654 55.2741 54.54 55.0234 54.54 54.6816C54.54 53.8385 55.0186 53.417 55.9756 53.417H59.0518C60.2594 53.417 60.8633 53.9297 60.8633 54.9551ZM75.3555 70.7803H85.1309C85.8372 70.7803 86.1904 71.3044 86.1904 72.3525C86.1904 73.4235 85.7689 73.959 84.9258 73.959H72.4502C70.9463 73.959 70.1943 73.1615 70.1943 71.5664V60.3896C70.1943 59.7972 70.1602 59.4326 70.0918 59.2959C70.0462 59.1592 69.8981 59.0225 69.6475 58.8857C69.3057 58.7718 69.0094 58.6237 68.7588 58.4414C68.5309 58.2591 68.417 57.9629 68.417 57.5527C68.417 56.7552 68.9183 56.3564 69.9209 56.3564H72.4844C73.8288 56.3564 74.501 56.8919 74.501 57.9629V69.8232C74.501 70.4613 74.7858 70.7803 75.3555 70.7803ZM87.5234 55.8438C87.5234 55.1829 87.4437 54.7728 87.2842 54.6133C87.1475 54.4538 86.931 54.3285 86.6348 54.2373C86.0879 54.1234 85.6549 53.9753 85.3359 53.793C85.0169 53.6107 84.8574 53.3258 84.8574 52.9385C84.8574 52.0498 85.3587 51.6055 86.3613 51.6055H90.0527C91.2376 51.6055 91.8301 52.084 91.8301 53.041V63.6025H95.5557C96.2848 63.6025 96.6494 64.1494 96.6494 65.2432C96.6494 66.3369 96.2848 66.8838 95.5557 66.8838H91.8301V81.8545C91.8301 83.9508 90.7363 84.999 88.5488 84.999H87.5234V55.8438ZM112.338 55.8096H128.642C129.713 55.8096 130.248 56.4818 130.248 57.8262C130.248 60.4238 130.077 63.0557 129.735 65.7217C129.416 68.3877 128.938 70.5638 128.3 72.25C128.163 72.6374 127.878 72.945 127.445 73.1729C127.012 73.4007 126.557 73.4121 126.078 73.207C125.759 73.0931 125.531 72.9108 125.395 72.6602C125.258 72.3867 125.212 71.9993 125.258 71.498C125.508 70.0625 125.668 68.6725 125.736 67.3281C125.805 65.9609 125.839 63.2038 125.839 59.0566H112.27C111.563 59.0566 111.21 58.5098 111.21 57.416C111.21 56.3451 111.586 55.8096 112.338 55.8096ZM117.636 76.4541V69.584C117.636 69.0143 117.567 68.6383 117.431 68.4561C117.294 68.251 117.021 68.0915 116.61 67.9775C116.246 67.8636 115.961 67.7269 115.756 67.5674C115.551 67.3851 115.448 67.1458 115.448 66.8496C115.448 66.0521 115.984 65.6533 117.055 65.6533H120.131C121.339 65.6533 121.942 66.2002 121.942 67.2939V76.4541H133.871C134.691 76.4541 135.102 77.0352 135.102 78.1973C135.102 79.2227 134.691 79.7354 133.871 79.7354H108.715C107.986 79.7354 107.621 79.2227 107.621 78.1973C107.621 77.0352 107.986 76.4541 108.715 76.4541H117.636ZM137.597 58.8174C136.868 58.8174 136.503 58.2819 136.503 57.2109C136.503 56.1628 136.902 55.6387 137.699 55.6387H147.851C148.375 55.6387 148.751 55.8779 148.979 56.3564C149.206 56.835 149.298 57.3135 149.252 57.792C148.796 60.3896 147.554 62.9417 145.526 65.4482C143.498 67.9548 141.117 70.0397 138.383 71.7031C137.175 72.5007 136.343 72.6032 135.888 72.0107C135.432 71.4183 135.512 70.8258 136.127 70.2334C138.406 68.5016 140.297 66.5192 141.801 64.2861C143.327 62.0303 144.262 60.2074 144.604 58.8174H137.597ZM161.522 53.2461V68.3877C161.522 70.6436 160.44 71.7715 158.275 71.7715H157.455V63.8076H154.687V68.2852C154.687 70.3815 153.684 71.4297 151.679 71.4297H150.858V57.4502C150.858 56.7894 150.779 56.3792 150.619 56.2197C150.482 56.0602 150.255 55.9349 149.936 55.8438C149.389 55.707 148.979 55.5589 148.705 55.3994C148.432 55.2399 148.295 54.9893 148.295 54.6475C148.295 53.8271 148.773 53.417 149.73 53.417H152.909C154.094 53.417 154.687 53.9069 154.687 54.8867V60.6631H157.455V55.707C157.455 55.1146 157.398 54.7386 157.284 54.5791C157.193 54.3968 156.977 54.2601 156.635 54.1689C156.065 54.055 155.644 53.9183 155.37 53.7588C155.097 53.5993 154.96 53.3258 154.96 52.9385C154.96 52.0498 155.495 51.6055 156.566 51.6055H159.711C160.919 51.6055 161.522 52.1523 161.522 53.2461ZM142.997 76.1465C142.382 76.1465 142.074 75.611 142.074 74.54C142.074 73.4919 142.393 72.9678 143.031 72.9678H159.745C160.679 72.9678 161.146 73.5033 161.146 74.5742V82.1279C161.146 84.4977 160.132 85.6826 158.104 85.6826H156.874V76.1465H142.997ZM165.453 59.5693C164.724 59.5693 164.359 59.0339 164.359 57.9629C164.359 56.8919 164.747 56.3564 165.521 56.3564H178.476C179.547 56.3564 180.082 57.0856 180.082 58.5439C180.082 60.458 179.911 62.5999 179.569 64.9697C179.25 67.3167 178.874 69.151 178.441 70.4727C178.282 70.9056 177.997 71.236 177.587 71.4639C177.177 71.6917 176.732 71.7259 176.254 71.5664C175.889 71.4525 175.639 71.2816 175.502 71.0537C175.365 70.8031 175.308 70.4157 175.331 69.8916C175.559 68.2282 175.673 66.542 175.673 64.833C175.673 63.1012 175.673 61.3467 175.673 59.5693H165.453ZM182.304 55.8779C182.304 55.1943 182.213 54.7728 182.03 54.6133C181.848 54.4538 181.586 54.3285 181.244 54.2373C180.788 54.1006 180.39 53.9525 180.048 53.793C179.729 53.6107 179.569 53.3258 179.569 52.9385C179.569 52.0498 180.048 51.6055 181.005 51.6055H184.833C186.018 51.6055 186.61 52.084 186.61 53.041V63.9443H190.336C191.065 63.9443 191.43 64.4912 191.43 65.585C191.43 66.6787 191.065 67.2256 190.336 67.2256H186.61V81.8545C186.61 83.9508 185.517 84.999 183.329 84.999H182.304V75.1211C182.235 75.3945 182.064 75.6224 181.791 75.8047C181.13 76.2148 180.082 76.5566 178.646 76.8301C177.211 77.1035 175.445 77.2402 173.349 77.2402H164.325C163.596 77.2402 163.231 76.7048 163.231 75.6338C163.231 74.5856 163.596 74.0615 164.325 74.0615H169.076V68.4561C169.076 67.818 169.031 67.3965 168.939 67.1914C168.848 66.9863 168.666 66.8382 168.393 66.7471C168.028 66.6559 167.72 66.5306 167.47 66.3711C167.219 66.1888 167.094 65.9382 167.094 65.6191C167.094 64.8216 167.698 64.4229 168.905 64.4229H171.537C172.768 64.4229 173.383 64.9697 173.383 66.0635V74.0615H173.485C175.012 74.0615 176.231 74.0501 177.143 74.0273C178.077 74.0046 179.022 73.902 179.979 73.7197C181.347 73.4235 182.121 73.6058 182.304 74.2666V74.335V55.8779ZM201.513 63.0898C201.011 62.9303 200.692 62.7708 200.556 62.6113C200.442 62.4518 200.408 62.2467 200.453 61.9961C200.544 61.6315 200.818 61.4036 201.273 61.3125C201.729 61.1986 202.185 61.1758 202.641 61.2441C204.031 61.3581 205.204 61.8594 206.161 62.748C207.118 63.6139 207.597 64.7077 207.597 66.0293C207.597 67.7155 206.89 69.1738 205.478 70.4043C204.088 71.612 202.333 72.2158 200.214 72.2158C198.072 72.2158 196.306 71.5778 194.916 70.3018C193.526 69.0257 192.831 67.4876 192.831 65.6875C192.831 64.5254 193.093 63.5 193.617 62.6113C194.141 61.6999 194.757 61.0618 195.463 60.6973H192.626C191.874 60.6973 191.498 60.1732 191.498 59.125C191.498 58.1224 191.863 57.6211 192.592 57.6211H207.323C208.144 57.6211 208.554 58.1224 208.554 59.125C208.554 60.1732 208.144 60.6973 207.323 60.6973H202.606C200.806 60.6973 199.451 61.1644 198.539 62.0986C197.628 63.0329 197.172 64.2292 197.172 65.6875C197.172 66.599 197.479 67.3737 198.095 68.0117C198.733 68.627 199.462 68.9346 200.282 68.9346C201.08 68.9346 201.775 68.6725 202.367 68.1484C202.96 67.6016 203.267 66.8952 203.29 66.0293C203.336 65.2546 203.188 64.6279 202.846 64.1494C202.504 63.6481 202.06 63.2949 201.513 63.0898ZM195.805 55.0234L194.916 54.2031C194.643 53.9297 194.494 53.6562 194.472 53.3828C194.449 53.1094 194.517 52.8473 194.677 52.5967C194.95 52.2321 195.281 52.027 195.668 51.9814C196.078 51.9359 196.534 52.0384 197.035 52.2891C198.015 52.7448 198.904 53.0524 199.701 53.2119C200.499 53.3486 201.581 53.417 202.948 53.417C203.974 53.417 204.486 53.9297 204.486 54.9551C204.486 55.502 204.315 55.9007 203.974 56.1514C203.632 56.3792 203.256 56.4932 202.846 56.4932L199.804 56.459C198.14 56.459 196.807 55.9805 195.805 55.0234ZM210.707 55.8438C210.707 55.1829 210.627 54.7842 210.468 54.6475C210.331 54.488 210.103 54.3512 209.784 54.2373C209.26 54.1006 208.839 53.9525 208.52 53.793C208.201 53.6107 208.041 53.3258 208.041 52.9385C208.041 52.0498 208.542 51.6055 209.545 51.6055H213.236C214.421 51.6055 215.014 52.084 215.014 53.041V61.7568H218.739C219.468 61.7568 219.833 62.3151 219.833 63.4316C219.833 64.5254 219.468 65.0723 218.739 65.0723H215.014V68.6953C215.014 70.7917 213.92 71.8398 211.732 71.8398H210.707V55.8438ZM203.495 81.8887H210.604V76.5566H203.495V81.8887ZM213.134 73.3438C214.228 73.3438 214.774 73.9818 214.774 75.2578V79.7695C214.774 80.6354 214.638 81.3532 214.364 81.9229C214.934 82.0596 215.219 82.5723 215.219 83.4609C215.219 84.5319 214.797 85.0674 213.954 85.0674H202.401C201.9 85.6143 201.216 85.8877 200.351 85.8877H199.325V78.0605C199.325 77.1491 199.291 76.5908 199.223 76.3857C199.154 76.1807 198.983 76.0212 198.71 75.9072C198.437 75.7705 198.197 75.611 197.992 75.4287C197.81 75.2464 197.719 74.9616 197.719 74.5742C197.719 73.7539 198.197 73.3438 199.154 73.3438H213.134ZM221.508 56.6982H233.812C234.314 56.6982 234.69 56.9033 234.94 57.3135C235.214 57.7008 235.316 58.1908 235.248 58.7832C235.043 60.3555 234.758 61.8936 234.394 63.3975H236.991V57.416C236.991 56.778 236.934 56.3792 236.82 56.2197C236.706 56.0602 236.49 55.9349 236.171 55.8438C235.647 55.707 235.237 55.5703 234.94 55.4336C234.644 55.2741 234.496 55.0234 234.496 54.6816C234.496 53.8385 234.975 53.417 235.932 53.417H238.939C240.147 53.417 240.751 53.9297 240.751 54.9551V79.667C240.751 81.8545 239.771 82.9482 237.812 82.9482H236.991V66.5762H233.915C233.71 66.5762 233.55 66.542 233.437 66.4736C233.231 67.0205 233.015 67.5674 232.787 68.1143C231.534 71.0309 230.167 73.4007 228.686 75.2236C227.842 76.249 227.068 76.5339 226.361 76.0781C225.678 75.5996 225.552 74.9958 225.985 74.2666C227.216 72.3753 228.264 70.1081 229.13 67.4648C230.019 64.8216 230.6 62.2923 230.873 59.877H229.027C228.549 62.5658 227.706 65.0951 226.498 67.4648C225.29 69.8346 224.037 71.8057 222.738 73.3779C221.804 74.5173 221.075 74.8135 220.551 74.2666C220.027 73.6969 219.993 73.002 220.448 72.1816C221.405 70.7233 222.328 68.8206 223.217 66.4736C224.128 64.1038 224.709 61.9049 224.96 59.877H221.474C220.744 59.877 220.38 59.3415 220.38 58.2705C220.38 57.2223 220.756 56.6982 221.508 56.6982ZM242.46 55.7412C242.46 55.126 242.403 54.7386 242.289 54.5791C242.198 54.3968 241.981 54.2601 241.64 54.1689C241.07 54.055 240.648 53.9183 240.375 53.7588C240.124 53.5993 239.999 53.3258 239.999 52.9385C239.999 52.0498 240.523 51.6055 241.571 51.6055H244.647C245.855 51.6055 246.459 52.141 246.459 53.2119V81.752C246.459 83.9395 245.422 85.0332 243.349 85.0332H242.46V55.7412ZM16.7031 110.302C15.9512 110.302 15.5752 109.778 15.5752 108.729C15.5752 107.681 15.9398 107.157 16.6689 107.157H19.0957V103.056C19.0957 102.486 19.0615 102.099 18.9932 101.894C18.9476 101.666 18.8109 101.506 18.583 101.415C18.3096 101.324 18.0475 101.221 17.7969 101.107C17.569 100.971 17.4551 100.697 17.4551 100.287C17.4551 99.5579 17.9564 99.1934 18.959 99.1934H21.3857C22.6846 99.1934 23.334 99.7061 23.334 100.731V107.157H25.7266V98.2705H16.6689C15.9398 98.2705 15.5752 97.735 15.5752 96.6641C15.5752 95.6159 15.9512 95.0918 16.7031 95.0918H32.1523C32.9499 95.0918 33.3486 95.6159 33.3486 96.6641C33.3486 97.735 32.984 98.2705 32.2549 98.2705H30.0332V107.157H32.6309C33.3372 107.157 33.6904 107.681 33.6904 108.729C33.6904 109.778 33.3031 110.302 32.5283 110.302H16.7031ZM35.5703 112.182V106.61H32.084C31.2181 106.61 30.7852 106.075 30.7852 105.004C30.7852 103.979 31.2181 103.466 32.084 103.466H35.5703V101.859H32.084C31.2181 101.859 30.7852 101.324 30.7852 100.253C30.7852 99.2275 31.2181 98.7148 32.084 98.7148H35.5703V95.8438C35.5703 95.1829 35.4906 94.7728 35.3311 94.6133C35.1715 94.4538 34.9437 94.3285 34.6475 94.2373C34.1234 94.1234 33.7018 93.9753 33.3828 93.793C33.0638 93.6107 32.9043 93.3258 32.9043 92.9385C32.9043 92.0498 33.3828 91.6055 34.3398 91.6055H37.8945C39.125 91.6055 39.7402 92.141 39.7402 93.2119V108.798C39.7402 111.054 38.6807 112.182 36.5615 112.182H35.5703ZM24.0859 118.812C24.0859 116.876 24.8037 115.212 26.2393 113.822C27.6748 112.41 29.5205 111.703 31.7764 111.703C34.055 111.703 35.9121 112.41 37.3477 113.822C38.806 115.212 39.5352 116.876 39.5352 118.812C39.5352 120.681 38.806 122.299 37.3477 123.666C35.9121 125.033 34.055 125.717 31.7764 125.717C29.5205 125.717 27.6748 125.033 26.2393 123.666C24.8037 122.299 24.0859 120.681 24.0859 118.812ZM35.3311 118.744C35.3311 117.696 34.9779 116.807 34.2715 116.078C33.5879 115.326 32.7448 114.95 31.7422 114.95C30.7852 114.95 29.9762 115.326 29.3154 116.078C28.6546 116.807 28.3242 117.696 28.3242 118.744C28.3242 119.77 28.6546 120.647 29.3154 121.376C29.9762 122.105 30.7852 122.47 31.7422 122.47C32.7448 122.47 33.5879 122.105 34.2715 121.376C34.9779 120.647 35.3311 119.77 35.3311 118.744ZM44.3887 100.048C43.6595 100.048 43.2949 99.5124 43.2949 98.4414C43.2949 97.3932 43.6709 96.8691 44.4229 96.8691H56.4541C57.0693 96.8691 57.5023 97.1084 57.7529 97.5869C58.0264 98.0426 58.1289 98.5326 58.0605 99.0566C57.5137 102.133 56.0212 105.163 53.583 108.148C51.1676 111.133 48.4447 113.549 45.4141 115.395C44.1152 116.238 43.2152 116.352 42.7139 115.736C42.2354 115.121 42.3265 114.517 42.9873 113.925C45.5166 111.988 47.7041 109.675 49.5498 106.986C51.3955 104.298 52.569 101.985 53.0703 100.048H44.3887ZM61.3076 95.8438C61.3076 95.1829 61.2279 94.7728 61.0684 94.6133C60.9316 94.4538 60.7152 94.3285 60.4189 94.2373C59.8721 94.1234 59.4391 93.9753 59.1201 93.793C58.8011 93.6107 58.6416 93.3258 58.6416 92.9385C58.6416 92.0498 59.1429 91.6055 60.1455 91.6055H63.8369C65.0218 91.6055 65.6143 92.084 65.6143 93.041V103.603H69.3398C70.069 103.603 70.4336 104.149 70.4336 105.243C70.4336 106.337 70.069 106.884 69.3398 106.884H65.6143V121.854C65.6143 123.951 64.5205 124.999 62.333 124.999H61.3076V95.8438ZM82.6699 98.7148C82.5104 100.606 81.8724 102.702 80.7559 105.004L86.9766 111.327C87.4779 111.806 87.7399 112.33 87.7627 112.899C87.8083 113.469 87.6715 113.913 87.3525 114.232C86.8512 114.711 86.2816 114.893 85.6436 114.779C85.0283 114.643 84.5156 114.324 84.1055 113.822L79.1836 107.807C77.3607 110.746 75.3327 113.184 73.0996 115.121C72.2109 115.873 71.5273 115.976 71.0488 115.429C70.5703 114.882 70.5817 114.289 71.083 113.651C73.1794 111.282 74.7972 108.741 75.9365 106.029C77.0758 103.295 77.7367 101.085 77.9189 99.3984C77.9645 99.2389 77.9189 99.068 77.7822 98.8857C77.6683 98.7035 77.4518 98.5781 77.1328 98.5098C76.2897 98.3275 75.891 97.8945 75.9365 97.2109C75.9821 96.5273 76.4264 96.1855 77.2695 96.1855H80.0039C81.0977 96.1855 81.8154 96.4248 82.1572 96.9033C82.5218 97.3818 82.6927 97.9857 82.6699 98.7148ZM89.7109 95.8438C89.7109 95.1829 89.6312 94.7728 89.4717 94.6133C89.335 94.4538 89.1185 94.3285 88.8223 94.2373C88.2754 94.1234 87.8424 93.9753 87.5234 93.793C87.2044 93.6107 87.0449 93.3258 87.0449 92.9385C87.0449 92.0498 87.5462 91.6055 88.5488 91.6055H92.2402C93.4251 91.6055 94.0176 92.084 94.0176 93.041V103.603H97.7432C98.4723 103.603 98.8369 104.149 98.8369 105.243C98.8369 106.337 98.4723 106.884 97.7432 106.884H94.0176V121.854C94.0176 123.951 92.9238 124.999 90.7363 124.999H89.7109V95.8438ZM111.688 98.4414C110.959 98.4414 110.595 97.9059 110.595 96.835C110.595 95.7868 110.982 95.2627 111.757 95.2627H123.788C124.289 95.2627 124.677 95.502 124.95 95.9805C125.224 96.4362 125.338 96.9033 125.292 97.3818C124.836 99.9111 123.321 102.577 120.746 105.38C118.194 108.183 115.482 110.393 112.611 112.011C111.29 112.854 110.424 112.934 110.014 112.25C109.604 111.544 109.729 110.951 110.39 110.473C113.147 108.536 115.391 106.382 117.123 104.013C118.855 101.643 119.914 99.7858 120.302 98.4414H111.688ZM129.257 111.293V95.8438C129.257 95.1829 129.177 94.7728 129.018 94.6133C128.858 94.4538 128.63 94.3285 128.334 94.2373C127.787 94.1234 127.354 93.9753 127.035 93.793C126.739 93.6107 126.591 93.3258 126.591 92.9385C126.591 92.0498 127.092 91.6055 128.095 91.6055H131.718C132.948 91.6055 133.563 92.141 133.563 93.2119V107.943C133.563 110.176 132.458 111.293 130.248 111.293H129.257ZM122.011 121.718H129.12V115.668H122.011V121.718ZM131.615 112.489C132.709 112.489 133.256 113.116 133.256 114.369V119.599C133.256 120.465 133.119 121.182 132.846 121.752C133.438 121.889 133.734 122.401 133.734 123.29C133.734 124.361 133.313 124.896 132.47 124.896H121.088C120.541 125.557 119.789 125.888 118.832 125.888H117.841V117.172C117.841 116.26 117.807 115.714 117.738 115.531C117.67 115.326 117.488 115.167 117.191 115.053C116.918 114.893 116.69 114.722 116.508 114.54C116.326 114.358 116.234 114.084 116.234 113.72C116.234 112.899 116.713 112.489 117.67 112.489H131.615ZM138.041 99.877C137.312 99.877 136.947 99.3415 136.947 98.2705C136.947 97.2223 137.357 96.6982 138.178 96.6982H147.646C148.192 96.6982 148.614 96.9375 148.91 97.416C149.206 97.8717 149.286 98.4528 149.149 99.1592C148.534 101.415 147.566 103.648 146.244 105.858L150.653 111.635C150.972 112.068 151.132 112.558 151.132 113.104C151.132 113.629 150.904 114.05 150.448 114.369C150.038 114.688 149.594 114.813 149.115 114.745C148.66 114.654 148.249 114.324 147.885 113.754L144.604 108.388C142.758 110.917 140.821 112.991 138.793 114.608C137.768 115.429 137.027 115.577 136.571 115.053C136.116 114.506 136.116 113.97 136.571 113.446C138.622 111.327 140.308 109.026 141.63 106.542C142.951 104.035 143.909 101.814 144.501 99.877H138.041ZM162.138 93.2119V121.752C162.138 123.939 161.055 125.033 158.891 125.033H158.07V95.7412C158.07 95.126 158.013 94.7386 157.899 94.5791C157.808 94.3968 157.592 94.2601 157.25 94.1689C156.68 94.055 156.259 93.9183 155.985 93.7588C155.712 93.5993 155.575 93.3258 155.575 92.9385C155.575 92.0498 156.111 91.6055 157.182 91.6055H160.326C161.534 91.6055 162.138 92.141 162.138 93.2119ZM156.259 94.9551V119.667C156.259 121.854 155.222 122.948 153.148 122.948H152.396V107.123H149.32C148.568 107.123 148.192 106.61 148.192 105.585C148.192 104.491 148.568 103.944 149.32 103.944H152.396V97.416C152.396 96.778 152.328 96.3792 152.191 96.2197C152.055 96.0602 151.827 95.9349 151.508 95.8438C150.961 95.707 150.562 95.5703 150.312 95.4336C150.061 95.2741 149.936 95.0234 149.936 94.6816C149.936 93.8385 150.414 93.417 151.371 93.417H154.447C155.655 93.417 156.259 93.9297 156.259 94.9551ZM171.811 103.158C171.811 102.589 171.776 102.201 171.708 101.996C171.64 101.768 171.492 101.609 171.264 101.518C170.99 101.426 170.728 101.324 170.478 101.21C170.25 101.073 170.136 100.8 170.136 100.39C170.136 99.6605 170.637 99.2959 171.64 99.2959H174.066C175.365 99.2959 176.015 99.8086 176.015 100.834V107.431H179.604V98.2705H168.29C167.561 98.2705 167.196 97.735 167.196 96.6641C167.196 95.6159 167.572 95.0918 168.324 95.0918H186.713C187.533 95.0918 187.943 95.6159 187.943 96.6641C187.943 97.735 187.567 98.2705 186.815 98.2705H183.91V107.431H186.815C187.567 107.431 187.943 107.966 187.943 109.037C187.943 110.04 187.533 110.541 186.713 110.541H168.324C167.572 110.541 167.196 110.04 167.196 109.037C167.196 107.966 167.561 107.431 168.29 107.431H171.811V103.158ZM190.37 119.735H165.214C164.485 119.735 164.12 119.188 164.12 118.095C164.12 117.001 164.485 116.454 165.214 116.454H190.37C191.19 116.454 191.601 117.001 191.601 118.095C191.601 119.188 191.19 119.735 190.37 119.735ZM210.058 99.3301C210.058 98.2819 209.636 97.3932 208.793 96.6641C207.973 95.9121 207.016 95.5361 205.922 95.5361C204.851 95.5361 203.905 95.9121 203.085 96.6641C202.265 97.3932 201.854 98.2819 201.854 99.3301C201.854 100.333 202.265 101.187 203.085 101.894C203.905 102.6 204.851 102.953 205.922 102.953C207.016 102.953 207.973 102.6 208.793 101.894C209.636 101.187 210.058 100.333 210.058 99.3301ZM197.514 99.3301C197.514 97.4388 198.3 95.7982 199.872 94.4082C201.444 92.9954 203.461 92.2891 205.922 92.2891C208.383 92.2891 210.399 92.9954 211.972 94.4082C213.567 95.7982 214.364 97.4388 214.364 99.3301C214.364 101.176 213.578 102.782 212.006 104.149C211.846 104.286 211.664 104.423 211.459 104.56H212.074C212.872 104.56 213.271 104.867 213.271 105.482V108.593H218.432C219.275 108.593 219.696 109.117 219.696 110.165C219.696 111.236 219.275 111.771 218.432 111.771H193.31C192.58 111.771 192.216 111.236 192.216 110.165C192.216 109.117 192.58 108.593 193.31 108.593H199.735V108.08C199.735 107.351 199.701 106.929 199.633 106.815C199.564 106.679 199.416 106.565 199.188 106.474C198.869 106.291 198.607 106.155 198.402 106.063C198.22 105.972 198.129 105.756 198.129 105.414C198.129 104.753 198.664 104.423 199.735 104.423H200.214C200.1 104.332 199.997 104.241 199.906 104.149C198.311 102.782 197.514 101.176 197.514 99.3301ZM207.802 106.063C207.187 106.155 206.56 106.2 205.922 106.2C205.261 106.2 204.623 106.155 204.008 106.063V108.593H208.998V108.388C208.998 107.659 208.964 107.169 208.896 106.918C208.85 106.667 208.702 106.496 208.451 106.405C208.178 106.269 207.961 106.155 207.802 106.063ZM197.89 119.086C197.89 117.331 198.642 115.782 200.146 114.438C201.649 113.093 203.575 112.421 205.922 112.421C208.246 112.421 210.172 113.093 211.698 114.438C213.225 115.782 213.988 117.331 213.988 119.086C213.988 120.818 213.225 122.356 211.698 123.7C210.172 125.045 208.246 125.717 205.922 125.717C203.575 125.717 201.649 125.045 200.146 123.7C198.642 122.356 197.89 120.818 197.89 119.086ZM209.75 119.086C209.75 118.152 209.374 117.354 208.622 116.693C207.893 116.01 206.981 115.668 205.888 115.668C204.84 115.668 203.951 116.01 203.222 116.693C202.493 117.354 202.128 118.152 202.128 119.086C202.128 119.997 202.493 120.784 203.222 121.444C203.951 122.128 204.84 122.47 205.888 122.47C206.981 122.47 207.893 122.128 208.622 121.444C209.374 120.784 209.75 119.997 209.75 119.086ZM222.191 98.373C221.462 98.373 221.098 97.8376 221.098 96.7666C221.098 95.7184 221.485 95.1943 222.26 95.1943H233.026C233.778 95.1943 234.348 95.4336 234.735 95.9121C235.123 96.3906 235.214 96.9945 235.009 97.7236C234.462 99.501 233.368 101.495 231.728 103.705L236.649 108.798C237.082 109.254 237.287 109.732 237.265 110.233C237.265 110.712 237.139 111.076 236.889 111.327C236.479 111.692 236 111.874 235.453 111.874C234.906 111.874 234.439 111.635 234.052 111.156L229.882 105.961C227.649 108.559 225.245 110.541 222.67 111.908C221.394 112.637 220.631 112.672 220.38 112.011C220.129 111.35 220.312 110.757 220.927 110.233C223.16 108.433 225.062 106.428 226.635 104.218C228.23 102.007 229.335 100.059 229.95 98.373H222.191ZM239.76 95.8438C239.76 95.1829 239.68 94.7728 239.521 94.6133C239.361 94.4538 239.133 94.3285 238.837 94.2373C238.29 94.1234 237.857 93.9753 237.538 93.793C237.242 93.6107 237.094 93.3258 237.094 92.9385C237.094 92.0498 237.595 91.6055 238.598 91.6055H242.221C243.451 91.6055 244.066 92.1296 244.066 93.1777V113.617C244.066 115.805 242.961 116.898 240.751 116.898H239.76V95.8438ZM244.203 124.657H231.557C229.255 124.657 228.104 123.62 228.104 121.547V117.65C228.104 116.99 228.013 116.579 227.831 116.42C227.672 116.26 227.432 116.124 227.113 116.01C226.521 115.85 226.145 115.679 225.985 115.497C225.826 115.315 225.746 115.053 225.746 114.711C225.746 113.913 226.19 113.515 227.079 113.515H230.6C231.807 113.515 232.411 114.039 232.411 115.087V120.692C232.411 121.194 232.616 121.444 233.026 121.444H244.34C245.092 121.444 245.468 121.98 245.468 123.051C245.468 124.122 245.046 124.657 244.203 124.657Z" fill="black"/>
<path d="M32.8896 18.4H22.5646V13.6H32.8896V18.4ZM35.4396 11.55H20.0146V20.475H35.4396V11.55ZM37.9896 23.25H17.5146V25.325H26.3896V32.925H28.9646V25.325H37.9896V23.25ZM56.6627 24.85H59.2377V10.35H56.6627V15.55H53.2627V17.65H56.6627V20.025H53.2127V22.1H56.6627V24.85ZM53.1127 12.625H48.2377V10.15H45.6627V12.625H40.5877V14.675H53.1127V12.625ZM44.1627 19.875C44.1627 18.5 45.2877 17.625 46.9627 17.625C48.6127 17.625 49.7377 18.5 49.7377 19.875C49.7377 21.3 48.6127 22.15 46.9627 22.15C45.2877 22.15 44.1627 21.3 44.1627 19.875ZM52.1377 19.875C52.1377 17.375 50.0127 15.675 46.9627 15.675C43.8877 15.675 41.7627 17.375 41.7627 19.875C41.7627 22.4 43.8877 24.1 46.9627 24.1C50.0127 24.1 52.1377 22.4 52.1377 19.875ZM51.7627 30.95C48.6627 30.95 46.8377 30.275 46.8377 29C46.8377 27.725 48.6627 27.075 51.7627 27.075C54.8127 27.075 56.6377 27.725 56.6377 29C56.6377 30.275 54.8127 30.95 51.7627 30.95ZM51.7627 25.1C47.0377 25.1 44.1377 26.55 44.1377 29C44.1377 31.475 47.0377 32.925 51.7627 32.925C56.4377 32.925 59.3627 31.475 59.3627 29C59.3627 26.55 56.4377 25.1 51.7627 25.1ZM71.4357 14.725H76.2107V12.6H63.9357V14.725H68.8607V16.9C68.8607 20.65 66.5607 24.925 63.1107 26.575L64.5857 28.625C67.1857 27.35 69.1857 24.65 70.1857 21.5C71.2107 24.35 73.1357 26.85 75.6607 28.05L77.0857 26.025C73.6607 24.4 71.4357 20.4 71.4357 16.9V14.725ZM84.5357 19.25H81.0107V10.35H78.4357V32.925H81.0107V21.375H84.5357V19.25ZM99.8338 21.4C96.4088 20.225 94.4588 17.375 94.4588 14.375V11.725H91.8588V14.35C91.8588 17.65 89.9338 20.7 86.3088 21.925L87.7088 23.925C90.3588 22.975 92.2338 21.05 93.2088 18.575C94.2088 20.775 96.0338 22.575 98.5338 23.45L99.8338 21.4ZM92.4838 25.375H89.9088V32.5H105.059V30.4H92.4838V25.375ZM104.159 17.1V10.325H101.584V26.975H104.159V19.225H107.359V17.1H104.159ZM125.657 24.225H128.232V10.35H125.657V14.2H122.382V16.275H125.657V18.325H122.382V20.4H125.657V24.225ZM114.657 14.05H117.532V20.85C116.557 20.9 115.607 20.925 114.657 20.95V14.05ZM122.557 20.45C121.732 20.55 120.882 20.65 120.007 20.675V14.05H122.032V11.95H110.132V14.05H112.182V21C111.257 21 110.357 21 109.532 21L109.832 23.125C113.457 23.125 118.457 23.05 122.707 22.325L122.557 20.45ZM120.707 30.95C117.482 30.95 115.682 30.175 115.682 28.8C115.682 27.375 117.482 26.625 120.707 26.625C123.932 26.625 125.757 27.375 125.757 28.8C125.757 30.175 123.932 30.95 120.707 30.95ZM120.707 24.625C115.982 24.625 113.107 26.15 113.107 28.8C113.107 31.4 115.982 32.925 120.707 32.925C125.432 32.925 128.332 31.4 128.332 28.8C128.332 26.15 125.432 24.625 120.707 24.625ZM133.63 12.725V14.825H141.53C141.005 20.025 138.03 24 132.505 26.825L133.93 28.8C141.305 25.075 144.105 19.275 144.105 12.725H133.63ZM153.43 19.25H150.005V10.325H147.43V32.9H150.005V21.4H153.43V19.25ZM179.743 10.35H177.143V21.925H179.743V10.35ZM174.868 19.4C171.393 18.325 169.368 15.575 169.368 12.65V10.95H166.743V12.65C166.743 15.7 164.718 18.625 161.143 19.8L162.418 21.85C165.143 20.925 167.068 19.05 168.093 16.625C169.118 18.85 171.018 20.575 173.618 21.425L174.868 19.4ZM167.518 30.7V28.725H179.743V23H164.943V25H177.193V26.85H164.993V32.725H180.418V30.7H167.518ZM197.566 21.05C194.191 19.875 192.266 17.05 192.266 14.25V13.825H196.966V11.75H184.891V13.825H189.666V14.275C189.666 17.325 187.616 20.3 184.116 21.5L185.441 23.525C188.116 22.6 190.016 20.65 191.016 18.225C191.991 20.4 193.791 22.175 196.291 23.05L197.566 21.05ZM187.616 27.025H200.266V32.925H202.841V24.95H187.616V27.025ZM200.266 10.325V16H196.316V18.125H200.266V23.825H202.841V10.325H200.266ZM213.629 31H224.129V28.625H220.529V12.6H218.354C217.304 13.25 216.079 13.675 214.354 14V15.825H217.654V28.625H213.629V31ZM234.362 13.45C236.337 13.45 237.712 14.475 237.712 16.05C237.712 17.65 236.337 18.675 234.362 18.675C232.412 18.675 231.012 17.65 231.012 16.05C231.012 14.475 232.412 13.45 234.362 13.45ZM234.362 20.8C237.737 20.8 240.187 18.85 240.187 16.05C240.187 13.275 237.737 11.325 234.362 11.325C230.987 11.325 228.537 13.275 228.537 16.05C228.537 18.85 230.987 20.8 234.362 20.8ZM241.637 21.65C236.762 22.375 231.087 22.45 227.012 22.45L227.312 24.575C229.062 24.575 231.062 24.55 233.187 24.475V32.25H235.762V24.325C237.762 24.175 239.837 23.95 241.812 23.55L241.637 21.65ZM243.112 10.35V32.95H245.687V10.35H243.112Z" fill="white"/>
</svg>
